<svg width="200" height="196" viewBox="0 0 200 196" fill="none" xmlns="http://www.w3.org/2000/svg">
<rect width="200" height="195.238" fill="#090219"/>
<g clip-path="url(#clip0)">
<path d="M62.6558 127.008C63.464 133.584 64.1711 140.16 64.9793 146.736C66.1915 156.752 66.3935 166.97 61.6456 176.176C59.7262 179.818 54.3722 179.818 50.9375 179.717C48.8161 179.515 46.7957 179.009 44.7753 178.098C39.8253 175.873 40.7345 166.97 45.3814 170.207C48.8161 172.635 51.9477 166.97 48.614 164.643C43.462 161.001 37.0978 163.429 34.6733 169.094C32.0468 175.165 36.5927 180.729 41.4416 183.663C46.6947 186.799 54.7762 187.204 60.3323 184.877C68.919 181.134 70.8384 171.624 71.8486 163.126C73.2629 151.086 70.1313 138.339 68.616 126.3C73.0608 125.491 77.2027 124.176 80.5363 122.658C96.0934 115.273 104.882 85.0233 84.5771 77.9415C71.1415 73.1866 57.0997 92.3074 70.5353 101.514C74.3741 104.144 78.0108 105.156 82.7587 105.055C86.9006 104.954 86.9006 98.4787 82.7587 98.5799C73.3639 98.7822 68.2119 87.1478 78.6169 84.1128C88.921 81.0777 90.4363 95.4437 89.325 102.02C87.6077 112.541 77.7078 118.207 67.9088 120.331C66.2925 105.358 64.0701 90.3852 61.3425 75.5134C62.6558 74.6029 63.868 73.7936 64.9793 72.883C80.7383 61.451 107.913 17.1391 75.6874 9.34913C64.5752 6.61757 53.9681 15.9251 50.7355 25.9408C45.8865 41.0149 50.5334 57.4042 54.1701 72.7819C41.4416 82.6964 29.5213 92.8133 33.4611 110.72C36.3906 124.074 49.8263 127.818 62.6558 127.008ZM59.3221 23.0069C64.6762 13.497 82.3547 11.676 83.87 25.3338C84.7791 33.9331 80.6373 43.7465 76.6976 51.0306C73.0608 57.7077 66.7976 63.0697 60.1303 68.3305C56.5946 53.2563 51.3416 37.2717 59.3221 23.0069ZM55.6854 79.459C55.9885 80.8754 56.2915 82.1906 56.4936 83.5058C58.716 95.9495 60.3323 108.494 61.9487 121.039C50.7355 121.646 39.4212 115.779 38.9161 103.537C38.512 93.3191 47.1998 85.6303 55.6854 79.459Z" fill="#F4ECFE"/>
</g>
<path d="M178.605 59.3962L177.684 60.6009L178.237 59.3036C178.789 58.0063 178.145 55.8751 177.224 55.8751C177.04 55.8751 176.027 57.1723 175.014 58.8403C174.002 60.5082 172.805 62.0835 172.345 62.4541C171.884 62.8248 172.069 62.3615 172.805 61.3422C174.278 59.3962 175.659 56.709 175.659 55.8751C175.659 54.5778 174.554 55.6897 172.069 59.3036C170.504 61.5275 169.031 63.4734 168.662 63.6587C168.386 63.8441 169.031 62.8248 170.135 61.3422C172.529 58.099 173.818 55.5044 173.357 55.1337C172.713 54.7631 172.069 55.4117 169.859 58.8403C164.151 67.5506 153.564 77.3729 145.555 81.5427C138.743 85.0639 129.905 85.9905 125.21 83.6739C120.147 81.2647 117.937 74.5003 119.042 65.4193C120.055 57.7283 125.578 48.184 133.864 39.5664C142.885 30.3001 149.238 26.6862 153.564 28.4468C154.761 28.8175 154.853 29.1881 154.853 31.3194C154.853 32.7093 154.301 34.8406 153.564 36.6938C152.92 38.2691 152.184 40.1224 152.091 40.6783C151.815 41.7903 153.657 44.5702 154.393 44.1069C154.669 43.9215 154.761 44.1995 154.577 44.5702C154.209 45.4968 158.075 46.2381 158.996 45.4041C160.009 44.5702 162.31 39.2884 162.955 36.2305C164.428 28.8175 159.18 23.3504 148.961 21.9604C143.346 21.1264 139.295 22.887 131.102 29.7441C126.775 33.358 125.394 34.8406 121.62 39.659C113.242 50.4079 110.204 57.821 110.204 67.6432C110.204 71.9057 110.388 73.1104 111.585 76.0756C114.071 82.4693 121.251 88.4924 128.708 90.531C131.93 91.365 138.651 91.365 142.978 90.531C151.907 88.6777 160.009 83.6739 168.018 75.2416C174.37 68.4772 180.814 59.3962 179.894 58.4696C179.71 58.2843 179.157 58.6549 178.605 59.3962ZM158.812 42.6243C159.088 42.4389 159.18 42.7169 158.996 43.0876C158.72 44.0142 158.352 44.1069 158.352 43.4582C158.352 43.1802 158.536 42.8096 158.812 42.6243ZM156.05 41.605C155.682 42.4389 155.406 42.6243 155.406 41.8829C155.406 41.6976 155.59 41.327 155.866 41.1416C156.142 40.9563 156.234 41.1416 156.05 41.605ZM156.234 35.0259C156.326 35.2112 155.958 36.5085 155.314 37.9911C154.761 39.4737 154.117 40.8637 153.841 41.1416C153.564 41.4196 153.657 40.771 154.117 39.659C154.577 38.5471 155.222 37.0645 155.498 36.2305C155.774 35.4892 156.05 34.9332 156.234 35.0259ZM121.435 54.3924C120.975 55.2264 120.515 55.8751 120.423 55.8751C120.239 55.8751 120.515 55.2264 120.883 54.3924C121.343 53.5585 121.804 52.9098 121.896 52.9098C122.08 52.9098 121.804 53.5585 121.435 54.3924ZM125.394 47.7207C124.658 48.9253 123.921 49.852 123.829 49.852C123.461 49.852 125.302 46.8867 126.038 46.2381C126.499 45.8675 126.131 46.6088 125.394 47.7207ZM127.603 44.6628C127.235 45.0335 126.867 45.4041 126.775 45.4041C126.591 45.4041 126.775 45.0335 127.143 44.6628C127.419 44.1995 127.88 43.9215 127.972 43.9215C128.156 43.9215 127.972 44.1995 127.603 44.6628ZM132.114 38.6397C132.391 38.2691 132.759 37.8984 132.943 37.8984C133.035 37.8984 132.943 38.2691 132.575 38.6397C132.206 39.1031 131.838 39.3811 131.746 39.3811C131.562 39.3811 131.746 39.1031 132.114 38.6397ZM131.102 40.493C131.102 40.5857 130.365 41.327 129.629 42.1609C128.8 42.9022 128.064 43.4582 128.064 43.3656C128.064 43.1802 128.8 42.4389 129.629 41.605C130.365 40.8637 131.102 40.3077 131.102 40.493ZM131.01 34.9332C131.102 34.9332 130.826 35.3965 130.365 35.9525C129.813 36.4158 129.353 36.8791 129.168 36.8791C129.076 36.8791 129.353 36.4158 129.813 35.9525C130.365 35.3965 130.826 34.9332 131.01 34.9332ZM128.616 34.1919C129.261 33.4506 129.905 32.8946 129.997 32.8946C130.181 32.8946 129.721 33.4506 129.076 34.1919C128.432 34.8406 127.788 35.3965 127.696 35.3965C127.511 35.3965 127.972 34.8406 128.616 34.1919ZM115.452 52.2612C117.569 47.9987 122.356 41.049 125.21 37.8984L127.235 35.6745L125.486 37.8984C124.473 39.1031 122.54 41.7903 121.159 43.8289C119.686 45.7748 117.477 49.4813 116.188 52.0759C113.334 57.3577 112.874 57.4503 115.452 52.2612ZM117.753 52.7245C119.594 49.1107 124.013 42.6243 126.407 40.0297L128.708 37.6205L126.775 40.0297C125.67 41.327 123.737 44.0142 122.356 45.9601C121.067 47.9987 119.226 50.9639 118.305 52.6319C116.556 55.9677 116.096 56.0604 117.753 52.7245ZM167.281 65.6047C166.637 66.2533 165.993 66.8093 165.901 66.8093C165.716 66.8093 166.177 66.2533 166.729 65.6047C167.373 64.956 168.018 64.3074 168.202 64.3074C168.294 64.3074 167.926 64.956 167.281 65.6047ZM169.215 66.624C168.938 66.9946 168.478 67.3653 168.386 67.3653C168.294 67.3653 168.386 66.9946 168.754 66.624C169.123 66.1606 169.491 65.8827 169.583 65.8827C169.767 65.8827 169.583 66.1606 169.215 66.624ZM171.24 64.1221C170.872 64.4927 170.504 64.8634 170.411 64.8634C170.227 64.8634 170.411 64.4927 170.78 64.1221C171.056 63.6587 171.424 63.3808 171.608 63.3808C171.7 63.3808 171.608 63.6587 171.24 64.1221ZM175.199 64.5854C174.83 65.0487 174.462 65.3267 174.37 65.3267C174.186 65.3267 174.37 65.0487 174.738 64.5854C175.014 64.2147 175.475 63.8441 175.567 63.8441C175.751 63.8441 175.567 64.2147 175.199 64.5854ZM177.224 61.8055C176.948 62.3615 176.395 62.9174 176.119 63.1028C175.843 63.2881 175.935 62.9174 176.487 62.1761C177.408 60.6009 177.96 60.4155 177.224 61.8055Z" fill="#F4ECFE"/>
<path d="M177.613 62.1658C177.715 62.1658 177.664 62.4232 177.459 62.7321C177.306 63.041 177.101 63.2984 177.05 63.2984C176.948 63.2984 177.05 63.041 177.203 62.7321C177.357 62.4232 177.561 62.1658 177.613 62.1658ZM173.879 62.7836C173.265 64.0706 172.856 64.7913 172.958 64.3795C173.265 63.1954 174.697 60.4155 175.465 59.5404L176.129 58.7167L175.567 59.5919C175.26 60.1067 174.493 61.4966 173.879 62.7836ZM174.442 64.0191C174.442 63.6587 176.078 60.7244 176.692 59.9522L177.255 59.2315L176.743 60.1067C176.487 60.57 175.874 61.651 175.362 62.5777C174.851 63.5043 174.442 64.1221 174.442 64.0191ZM176.129 65.1002C176.129 64.9457 176.232 64.6368 176.385 64.3795C176.539 64.1735 176.641 64.0706 176.641 64.225C176.641 64.3795 176.539 64.6883 176.385 64.9457C176.232 65.1516 176.129 65.2546 176.129 65.1002Z" fill="#F4ECFE"/>
<path d="M178.605 141.398L177.684 142.614L178.237 141.304C178.789 139.994 178.145 137.842 177.224 137.842C177.04 137.842 176.027 139.152 175.014 140.836C174.002 142.521 172.805 144.111 172.345 144.486C171.884 144.86 172.069 144.392 172.805 143.363C174.278 141.398 175.659 138.684 175.659 137.842C175.659 136.532 174.554 137.655 172.069 141.304C170.504 143.55 169.031 145.515 168.662 145.702C168.386 145.889 169.031 144.86 170.135 143.363C172.529 140.088 173.818 137.468 173.357 137.094C172.713 136.719 172.069 137.374 169.859 140.836C164.151 149.632 153.564 159.551 145.555 163.761C138.743 167.317 129.905 168.253 125.21 165.914C120.147 163.481 117.937 156.65 119.042 147.48C120.055 139.714 125.578 130.076 133.864 121.374C142.885 112.016 149.238 108.367 153.564 110.145C154.761 110.519 154.853 110.894 154.853 113.046C154.853 114.449 154.301 116.601 153.564 118.473C152.92 120.064 152.184 121.935 152.091 122.496C151.815 123.619 153.657 126.426 154.393 125.959C154.669 125.771 154.761 126.052 154.577 126.426C154.209 127.362 158.075 128.111 158.996 127.269C160.009 126.426 162.31 121.093 162.955 118.005C164.428 110.519 159.18 104.999 148.961 103.595C143.346 102.753 139.295 104.531 131.102 111.455C126.775 115.104 125.394 116.601 121.62 121.467C113.242 132.321 110.204 139.807 110.204 149.726C110.204 154.03 110.388 155.246 111.585 158.241C114.071 164.697 121.251 170.779 128.708 172.838C131.93 173.68 138.651 173.68 142.978 172.838C151.907 170.966 160.009 165.914 168.018 157.399C174.37 150.568 180.814 141.398 179.894 140.462C179.71 140.275 179.157 140.649 178.605 141.398ZM158.812 124.461C159.088 124.274 159.18 124.555 158.996 124.929C158.72 125.865 158.352 125.959 158.352 125.304C158.352 125.023 158.536 124.649 158.812 124.461ZM156.05 123.432C155.682 124.274 155.406 124.461 155.406 123.713C155.406 123.526 155.59 123.151 155.866 122.964C156.142 122.777 156.234 122.964 156.05 123.432ZM156.234 116.789C156.326 116.976 155.958 118.286 155.314 119.783C154.761 121.28 154.117 122.684 153.841 122.964C153.564 123.245 153.657 122.59 154.117 121.467C154.577 120.344 155.222 118.847 155.498 118.005C155.774 117.256 156.05 116.695 156.234 116.789ZM121.435 136.345C120.975 137.187 120.515 137.842 120.423 137.842C120.239 137.842 120.515 137.187 120.883 136.345C121.343 135.503 121.804 134.848 121.896 134.848C122.08 134.848 121.804 135.503 121.435 136.345ZM125.394 129.608C124.658 130.824 123.921 131.76 123.829 131.76C123.461 131.76 125.302 128.766 126.038 128.111C126.499 127.736 126.131 128.485 125.394 129.608ZM127.603 126.52C127.235 126.894 126.867 127.269 126.775 127.269C126.591 127.269 126.775 126.894 127.143 126.52C127.419 126.052 127.88 125.771 127.972 125.771C128.156 125.771 127.972 126.052 127.603 126.52ZM132.114 120.438C132.391 120.064 132.759 119.689 132.943 119.689C133.035 119.689 132.943 120.064 132.575 120.438C132.206 120.906 131.838 121.186 131.746 121.186C131.562 121.186 131.746 120.906 132.114 120.438ZM131.102 122.309C131.102 122.403 130.365 123.151 129.629 123.994C128.8 124.742 128.064 125.304 128.064 125.21C128.064 125.023 128.8 124.274 129.629 123.432C130.365 122.684 131.102 122.122 131.102 122.309ZM131.01 116.695C131.102 116.695 130.826 117.163 130.365 117.724C129.813 118.192 129.353 118.66 129.168 118.66C129.076 118.66 129.353 118.192 129.813 117.724C130.365 117.163 130.826 116.695 131.01 116.695ZM128.616 115.946C129.261 115.198 129.905 114.636 129.997 114.636C130.181 114.636 129.721 115.198 129.076 115.946C128.432 116.601 127.788 117.163 127.696 117.163C127.511 117.163 127.972 116.601 128.616 115.946ZM115.452 134.193C117.569 129.889 122.356 122.871 125.21 119.689L127.235 117.444L125.486 119.689C124.473 120.906 122.54 123.619 121.159 125.678C119.686 127.643 117.477 131.386 116.188 134.006C113.334 139.339 112.874 139.433 115.452 134.193ZM117.753 134.661C119.594 131.011 124.013 124.461 126.407 121.841L128.708 119.409L126.775 121.841C125.67 123.151 123.737 125.865 122.356 127.83C121.067 129.889 119.226 132.883 118.305 134.567C116.556 137.936 116.096 138.029 117.753 134.661ZM167.281 147.667C166.637 148.322 165.993 148.884 165.901 148.884C165.716 148.884 166.177 148.322 166.729 147.667C167.373 147.012 168.018 146.357 168.202 146.357C168.294 146.357 167.926 147.012 167.281 147.667ZM169.215 148.696C168.938 149.071 168.478 149.445 168.386 149.445C168.294 149.445 168.386 149.071 168.754 148.696C169.123 148.229 169.491 147.948 169.583 147.948C169.767 147.948 169.583 148.229 169.215 148.696ZM171.24 146.17C170.872 146.544 170.504 146.919 170.411 146.919C170.227 146.919 170.411 146.544 170.78 146.17C171.056 145.702 171.424 145.421 171.608 145.421C171.7 145.421 171.608 145.702 171.24 146.17ZM175.199 146.638C174.83 147.106 174.462 147.386 174.37 147.386C174.186 147.386 174.37 147.106 174.738 146.638C175.014 146.264 175.475 145.889 175.567 145.889C175.751 145.889 175.567 146.264 175.199 146.638ZM177.224 143.831C176.948 144.392 176.395 144.954 176.119 145.141C175.843 145.328 175.935 144.954 176.487 144.205C177.408 142.614 177.96 142.427 177.224 143.831Z" fill="#F4ECFE"/>
<path d="M177.613 144.195C177.715 144.195 177.664 144.454 177.459 144.766C177.306 145.078 177.101 145.338 177.05 145.338C176.948 145.338 177.05 145.078 177.203 144.766C177.357 144.454 177.561 144.195 177.613 144.195ZM173.879 144.818C173.265 146.118 172.856 146.846 172.958 146.43C173.265 145.234 174.697 142.427 175.465 141.543L176.129 140.712L175.567 141.595C175.26 142.115 174.493 143.519 173.879 144.818ZM174.442 146.066C174.442 145.702 176.078 142.739 176.692 141.959L177.255 141.231L176.743 142.115C176.487 142.583 175.874 143.675 175.362 144.61C174.851 145.546 174.442 146.17 174.442 146.066ZM176.129 147.158C176.129 147.002 176.232 146.69 176.385 146.43C176.539 146.222 176.641 146.118 176.641 146.274C176.641 146.43 176.539 146.742 176.385 147.002C176.232 147.21 176.129 147.314 176.129 147.158Z" fill="#F4ECFE"/>
<defs>
<clipPath id="clip0">
<rect width="63.9456" height="177.551" fill="white" transform="translate(32.6531 8.84354)"/>
</clipPath>
</defs>
</svg>
