<svg width="23" height="24" viewBox="0 0 23 24" fill="none" xmlns="http://www.w3.org/2000/svg">
<path d="M19.5821 8.285C20.2608 8.25186 20.6426 7.98675 20.8971 7.5228C21.6607 5.9984 22.3394 4.47401 22.9333 2.91647C23.1878 2.28683 22.6788 1.82288 22.0001 1.65719C21.788 1.42521 21.4486 1.22638 21.0244 1.19324C17.8853 0.861848 14.4493 0.596736 11.395 1.45835C9.78307 1.9223 9.91033 3.77809 9.78307 4.8054C9.40129 7.95361 9.01951 11.0687 8.63773 14.2169C8.63773 14.3163 8.59531 14.4157 8.59531 14.5151C4.65023 14.3826 1.04452 15.443 0.111279 18.7238C-0.652284 21.5406 2.65649 22.9656 5.66832 23.0982C11.1405 23.3301 10.5891 20.2813 10.9708 16.9012C11.3526 13.9518 11.692 11.0355 12.0738 8.08616C14.619 8.38442 17.0793 8.45069 19.5821 8.285ZM12.9646 4.57342C12.3707 4.93795 12.4555 5.63387 12.9222 6.06468C12.7101 6.03154 12.498 6.03154 12.2859 5.9984C12.3707 5.26934 12.498 4.47401 12.9222 3.91064C12.8797 4.17576 12.8797 4.37459 12.9646 4.57342ZM5.11686 20.679C5.15928 20.6459 5.24412 20.6127 5.28654 20.6127C5.28654 20.7121 5.28654 20.8116 5.28654 20.911C5.24412 20.8447 5.15928 20.7784 5.11686 20.679Z" fill="#0C0324"/>
</svg>
