<svg width="54" height="30" viewBox="0 0 54 30" fill="none" xmlns="http://www.w3.org/2000/svg">
<path d="M19.5821 10.285C20.2608 10.2519 20.6426 9.98675 20.8971 9.5228C21.6607 7.9984 22.3394 6.47401 22.9333 4.91647C23.1878 4.28683 22.6788 3.82288 22.0001 3.65719C21.788 3.42521 21.4486 3.22638 21.0244 3.19324C17.8853 2.86185 14.4493 2.59674 11.395 3.45835C9.78307 3.9223 9.91033 5.77809 9.78307 6.8054C9.40129 9.95361 9.01951 13.0687 8.63773 16.2169C8.63773 16.3163 8.59531 16.4157 8.59531 16.5151C4.65023 16.3826 1.04452 17.443 0.111279 20.7238C-0.652284 23.5406 2.65649 24.9656 5.66832 25.0982C11.1405 25.3301 10.5891 22.2813 10.9708 18.9012C11.3526 15.9518 11.692 13.0355 12.0738 10.0862C14.619 10.3844 17.0793 10.4507 19.5821 10.285ZM12.9646 6.57342C12.3707 6.93795 12.4555 7.63387 12.9222 8.06468C12.7101 8.03154 12.498 8.03154 12.2859 7.9984C12.3707 7.26934 12.498 6.47401 12.9222 5.91064C12.8797 6.17576 12.8797 6.37459 12.9646 6.57342ZM5.11686 22.679C5.15928 22.6459 5.24412 22.6127 5.28654 22.6127C5.28654 22.7121 5.28654 22.8116 5.28654 22.911C5.24412 22.8447 5.15928 22.7784 5.11686 22.679Z" fill="#0C0324"/>
<path d="M19.8913 20.212C19.0891 24.945 26.8717 25.366 30.7343 25.044C31.402 24.9754 31.8531 24.6501 31.8823 24.1148C32.2396 20.2499 32.5616 16.3775 32.919 12.5126C33.0075 11.6891 33.096 10.8656 33.2553 10.0571C38.0294 10.7411 42.8061 11.3053 47.6207 11.7573C47.4101 13.728 47.1287 15.6838 46.7766 17.6245C46.7577 17.6806 46.7387 17.7368 46.7552 17.8004C46.6231 17.7423 46.4816 17.7122 46.3047 17.6746C43.4056 17.3892 38.8311 17.3493 37.7934 20.1972C36.7817 23.0806 39.7589 24.7063 43.0257 25.2503C47.9129 26.0486 47.9524 23.3495 48.5655 20.4114C49.5446 15.716 50.2666 10.9961 50.2525 6.20991C50.2602 5.85053 49.9045 5.44402 49.3998 5.3668C47.4256 5.03736 45.4514 4.70792 43.4771 4.37849C43.3097 4.31281 43.1423 4.24714 42.956 4.23761C40.2855 4.06099 36.8185 3.32396 34.1639 3.66211C32.0967 3.94465 32.0283 5.49443 31.5708 6.96147C30.5514 10.2043 30.2206 13.6537 30.0054 17.0976C26.0216 16.4312 20.5886 16.2388 19.8913 20.212ZM46.3089 19.5707C46.3443 19.5782 46.3443 19.5782 46.3892 19.5577C46.3487 19.7897 46.3083 20.0218 46.2678 20.2539C46.1617 20.2313 46.0555 20.2087 45.9045 20.2067C45.8243 20.2198 45.7441 20.2328 45.6638 20.2458C45.7138 19.9857 45.7542 19.7536 45.8395 19.501C45.9811 19.5311 46.1579 19.5687 46.3089 19.5707ZM41.312 22.69C41.8813 22.2394 42.4859 21.7964 43.0906 21.3533C43.0097 21.8175 42.8839 22.3021 42.803 22.7663C42.7435 23.0545 42.8446 23.3166 43.0095 23.5021C42.1225 23.4338 41.5685 23.1656 41.312 22.69ZM24.2289 20.9536C24.4349 20.4559 24.7729 20.0163 25.3112 19.7698C24.9826 20.1812 24.6187 20.5852 24.2289 20.9536ZM27.7128 22.9878C27.7033 23.0158 27.7033 23.0158 27.7292 23.0514C27.7267 23.1712 27.7949 23.3061 27.8372 23.4053C27.6862 23.4033 27.5352 23.4013 27.3842 23.3993C27.4291 23.3787 27.4386 23.3506 27.4929 23.302C27.5662 23.1973 27.6395 23.0925 27.7128 22.9878ZM27.9811 18.7129C27.9293 18.6417 27.8327 18.5911 27.7619 18.576C27.868 18.5986 27.9483 18.5856 28.0544 18.6081C28.0354 18.6643 28.026 18.6923 27.9811 18.7129ZM24.8768 23.0768C25.0562 22.9946 25.2098 22.8768 25.3633 22.7591C25.3418 22.935 25.4005 23.0979 25.5041 23.2402C25.2919 23.1951 25.0891 23.1219 24.8768 23.0768ZM35.0061 8.3536C35.032 8.38919 35.0579 8.42478 35.0838 8.46036C35.0131 8.44532 34.9423 8.43028 34.9069 8.42276C34.9069 8.42276 34.9613 8.37415 35.0061 8.3536ZM39.9553 8.74389C39.8466 8.84112 39.7638 8.97393 39.7259 9.08621C39.5844 9.05612 39.4334 9.05411 39.2919 9.02402C39.5162 8.92129 39.731 8.84662 39.9553 8.74389ZM42.9339 9.46735C43.2928 9.30298 43.6516 9.1386 44.02 8.94616C44.1229 9.53961 45.1109 9.86998 45.7484 9.55426C45.9822 9.42345 46.2418 9.32824 46.4661 9.2255C46.7251 9.58139 47.2886 9.82151 47.789 9.68722C47.7959 9.77894 47.7675 9.86315 47.7744 9.95487C46.1609 9.79236 44.5474 9.62986 42.9339 9.46735Z" fill="#0C0324"/>
</svg>
