<svg width="32" height="23" viewBox="0 0 32 23" fill="none" xmlns="http://www.w3.org/2000/svg">
<path d="M0.65582 17.212C-0.146392 21.945 7.63618 22.366 11.4988 22.044C12.1666 21.9754 12.6177 21.6501 12.6468 21.1148C13.0041 17.2499 13.3261 13.3775 13.6835 9.51259C13.772 8.68909 13.8606 7.86559 14.0199 7.05713C18.794 7.74112 23.5706 8.30532 28.3852 8.75725C28.1746 10.728 27.8933 12.6838 27.5412 14.6245C27.5222 14.6806 27.5033 14.7368 27.5197 14.8004C27.3876 14.7423 27.2461 14.7122 27.0692 14.6746C24.1701 14.3892 19.5956 14.3493 18.5579 17.1972C17.5462 20.0806 20.5235 21.7063 23.7902 22.2503C28.6774 23.0486 28.7169 20.3495 29.33 17.4114C30.3091 12.716 31.0311 7.99608 31.0171 3.20991C31.0247 2.85053 30.6691 2.44402 30.1643 2.3668C28.1901 2.03736 26.2159 1.70792 24.2417 1.37849C24.0743 1.31281 23.9069 1.24714 23.7205 1.23761C21.0501 1.06099 17.5831 0.323962 14.9284 0.662106C12.8612 0.944654 12.7928 2.49443 12.3353 3.96147C11.3159 7.20431 10.9851 10.6537 10.77 14.0976C6.78617 13.4312 1.35308 13.2388 0.65582 17.212ZM27.0735 16.5707C27.1088 16.5782 27.1088 16.5782 27.1537 16.5577C27.1132 16.7897 27.0728 17.0218 27.0323 17.2539C26.9262 17.2313 26.8201 17.2087 26.6691 17.2067C26.5888 17.2198 26.5086 17.2328 26.4284 17.2458C26.4783 16.9857 26.5188 16.7536 26.6041 16.501C26.7456 16.5311 26.9225 16.5687 27.0735 16.5707ZM22.0766 19.69C22.6458 19.2394 23.2505 18.7964 23.8551 18.3533C23.7742 18.8175 23.6484 19.3021 23.5675 19.7663C23.5081 20.0545 23.6091 20.3166 23.774 20.5021C22.887 20.4338 22.333 20.1656 22.0766 19.69ZM4.99339 17.9536C5.19939 17.4559 5.53743 17.0163 6.07572 16.7698C5.74716 17.1812 5.38322 17.5852 4.99339 17.9536ZM8.47731 19.9878C8.46783 20.0158 8.46783 20.0158 8.49373 20.0514C8.49119 20.1712 8.5594 20.3061 8.60172 20.4053C8.45073 20.4033 8.29974 20.4013 8.14875 20.3993C8.19361 20.3787 8.20309 20.3506 8.25742 20.302C8.33072 20.1973 8.40401 20.0925 8.47731 19.9878ZM8.74564 15.7129C8.69384 15.6417 8.59719 15.5911 8.52643 15.576C8.63257 15.5986 8.7128 15.5856 8.81893 15.6081C8.79997 15.6643 8.79049 15.6923 8.74564 15.7129ZM5.64134 20.0768C5.82077 19.9946 5.9743 19.8768 6.12783 19.7591C6.10633 19.935 6.16507 20.0979 6.26866 20.2402C6.05639 20.1951 5.85361 20.1219 5.64134 20.0768ZM15.7706 5.3536C15.7965 5.38919 15.8224 5.42478 15.8483 5.46036C15.7776 5.44532 15.7068 5.43028 15.6714 5.42276C15.6714 5.42276 15.7258 5.37415 15.7706 5.3536ZM20.7198 5.74389C20.6111 5.84112 20.5283 5.97393 20.4904 6.08621C20.3489 6.05612 20.1979 6.05411 20.0564 6.02402C20.2807 5.92129 20.4955 5.84662 20.7198 5.74389ZM23.6984 6.46735C24.0573 6.30298 24.4162 6.1386 24.7845 5.94616C24.8874 6.53961 25.8754 6.86998 26.5129 6.55426C26.7467 6.42345 27.0063 6.32824 27.2306 6.2255C27.4896 6.58139 28.0531 6.82151 28.5535 6.68722C28.5604 6.77894 28.532 6.86315 28.5389 6.95487C26.9254 6.79236 25.3119 6.62986 23.6984 6.46735Z" fill="#0C0324"/>
</svg>
