<svg width="4" height="4" viewBox="0 0 4 4" fill="none" xmlns="http://www.w3.org/2000/svg">
<path d="M2.20004 0.339969C1.88004 0.209969 1.79004 0.189969 1.48004 0.219969C1.01004 0.259969 0.770043 0.369969 0.490043 0.649969C-0.0799566 1.22997 -0.0399566 2.17997 0.610043 3.11997C0.830043 3.42997 1.14004 3.64997 1.47004 3.68997C1.76004 3.73997 2.20004 3.64997 2.45004 3.50997C2.64004 3.39997 2.67004 3.29997 2.51004 3.33997C2.45004 3.34997 2.40004 3.34997 2.40004 3.31997C2.40004 3.28997 2.42004 3.26997 2.45004 3.26997C2.48004 3.26997 2.51004 3.19997 2.51004 3.10997C2.51004 2.97997 2.55004 2.91997 2.72004 2.80997C3.07004 2.56997 3.37004 2.09997 3.37004 1.76997C3.37004 1.22997 2.86004 0.599969 2.20004 0.339969ZM1.27004 1.45997C1.12004 1.61997 1.10004 1.62997 1.14004 1.51997C1.16004 1.46997 1.23004 1.40997 1.29004 1.37997C1.39004 1.31997 1.39004 1.32997 1.27004 1.45997ZM1.22004 1.12997C1.18004 1.17997 1.12004 1.21997 1.09004 1.21997C1.06004 1.21997 1.05004 1.21997 1.06004 1.20997C1.07004 1.19997 1.13004 1.15997 1.19004 1.10997C1.29004 1.03997 1.29004 1.03997 1.22004 1.12997ZM0.530043 0.929969C0.450043 1.02997 0.420043 1.04997 0.450043 0.979969C0.500043 0.869969 0.680043 0.699969 0.840043 0.599969C0.890043 0.569969 0.870043 0.599969 0.790043 0.669969C0.720043 0.729969 0.600043 0.849969 0.530043 0.929969ZM0.860043 0.909969C0.920043 0.839969 1.02004 0.759969 1.08004 0.729969C1.14004 0.699969 1.16004 0.689969 1.13004 0.719969C1.10004 0.749969 1.01004 0.829969 0.920043 0.899969C0.760043 1.02997 0.760043 1.02997 0.860043 0.909969ZM1.28004 2.88997C1.19004 2.88997 1.10004 2.85997 1.07004 2.82997C0.970043 2.70997 0.850043 2.28997 0.880043 2.17997C0.900043 2.09997 0.940043 2.13997 1.06004 2.35997C1.15004 2.51997 1.27004 2.69997 1.33004 2.76997L1.45004 2.88997H1.28004ZM2.08004 2.04997C1.98004 2.11997 1.83004 2.18997 1.77004 2.20997C1.66004 2.22997 1.65004 2.22997 1.71004 2.10997C1.75004 2.03997 1.86004 1.92997 1.97004 1.85997C2.11004 1.75997 2.15004 1.68997 2.14004 1.59997C2.13004 1.44997 1.85004 1.16997 1.73004 1.16997C1.68004 1.16997 1.65004 1.14997 1.65004 1.11997C1.65004 1.03997 2.18004 1.04997 2.40004 1.11997C2.56004 1.17997 2.57004 1.19997 2.54004 1.36997C2.50004 1.62997 2.31004 1.90997 2.08004 2.04997ZM2.29004 2.18997C2.19004 2.24997 2.20004 2.21997 2.34004 2.06997C2.55004 1.83997 2.61004 1.80997 2.50004 1.98997C2.45004 2.04997 2.36004 2.13997 2.29004 2.18997ZM2.56004 2.26997C2.52004 2.31997 2.48004 2.34997 2.47004 2.34997C2.45004 2.34997 2.47004 2.31997 2.51004 2.26997C2.54004 2.22997 2.59004 2.18997 2.60004 2.18997C2.62004 2.18997 2.60004 2.22997 2.56004 2.26997ZM2.81004 2.55997C2.75004 2.61997 2.68004 2.67997 2.65004 2.67997C2.62004 2.67997 2.61004 2.66997 2.62004 2.65997C2.63004 2.65997 2.70004 2.59997 2.78004 2.53997L2.91004 2.43997L2.81004 2.55997Z" fill="#4007D7"/>
</svg>
