<svg width="201" height="83" viewBox="0 0 201 83" fill="none" xmlns="http://www.w3.org/2000/svg">
<path d="M120.435 18.2731L119.985 18.8581L120.255 18.2281C120.525 17.5981 120.21 16.5631 119.76 16.5631C119.67 16.5631 119.175 17.1931 118.68 18.0031C118.185 18.8131 117.6 19.5781 117.375 19.7581C117.15 19.9381 117.24 19.7131 117.6 19.2181C118.32 18.2731 118.995 16.9681 118.995 16.5631C118.995 15.9331 118.455 16.4731 117.24 18.2281C116.475 19.3081 115.755 20.2531 115.575 20.3431C115.44 20.4331 115.755 19.9381 116.295 19.2181C117.465 17.6431 118.095 16.3831 117.87 16.2031C117.555 16.0231 117.24 16.3381 116.16 18.0031C113.37 22.2331 108.195 27.0031 104.28 29.0281C100.95 30.7381 96.63 31.1881 94.335 30.0631C91.86 28.8931 90.78 25.6081 91.32 21.1981C91.815 17.4631 94.515 12.8281 98.565 8.6431C102.975 4.1431 106.08 2.3881 108.195 3.2431C108.78 3.4231 108.825 3.6031 108.825 4.6381C108.825 5.3131 108.555 6.3481 108.195 7.2481C107.88 8.0131 107.52 8.9131 107.475 9.1831C107.34 9.7231 108.24 11.0731 108.6 10.8481C108.735 10.7581 108.78 10.8931 108.69 11.0731C108.51 11.5231 110.4 11.8831 110.85 11.4781C111.345 11.0731 112.47 8.5081 112.785 7.0231C113.505 3.4231 110.94 0.768099 105.945 0.0930995C103.2 -0.311901 101.22 0.543099 97.215 3.8731C95.1 5.6281 94.425 6.3481 92.58 8.6881C88.485 13.9081 87 17.5081 87 22.2781C87 24.3481 87.09 24.9331 87.675 26.3731C88.89 29.4781 92.4 32.4031 96.045 33.3931C97.62 33.7981 100.905 33.7981 103.02 33.3931C107.385 32.4931 111.345 30.0631 115.26 25.9681C118.365 22.6831 121.515 18.2731 121.065 17.8231C120.975 17.7331 120.705 17.9131 120.435 18.2731ZM110.76 10.1281C110.895 10.0381 110.94 10.1731 110.85 10.3531C110.715 10.8031 110.535 10.8481 110.535 10.5331C110.535 10.3981 110.625 10.2181 110.76 10.1281ZM109.41 9.6331C109.23 10.0381 109.095 10.1281 109.095 9.7681C109.095 9.6781 109.185 9.4981 109.32 9.4081C109.455 9.3181 109.5 9.4081 109.41 9.6331ZM109.5 6.4381C109.545 6.5281 109.365 7.1581 109.05 7.8781C108.78 8.5981 108.465 9.2731 108.33 9.4081C108.195 9.5431 108.24 9.2281 108.465 8.6881C108.69 8.1481 109.005 7.4281 109.14 7.0231C109.275 6.6631 109.41 6.3931 109.5 6.4381ZM92.49 15.8431C92.265 16.2481 92.04 16.5631 91.995 16.5631C91.905 16.5631 92.04 16.2481 92.22 15.8431C92.445 15.4381 92.67 15.1231 92.715 15.1231C92.805 15.1231 92.67 15.4381 92.49 15.8431ZM94.425 12.6031C94.065 13.1881 93.705 13.6381 93.66 13.6381C93.48 13.6381 94.38 12.1981 94.74 11.8831C94.965 11.7031 94.785 12.0631 94.425 12.6031ZM95.505 11.1181C95.325 11.2981 95.145 11.4781 95.1 11.4781C95.01 11.4781 95.1 11.2981 95.28 11.1181C95.415 10.8931 95.64 10.7581 95.685 10.7581C95.775 10.7581 95.685 10.8931 95.505 11.1181ZM97.71 8.1931C97.845 8.0131 98.025 7.8331 98.115 7.8331C98.16 7.8331 98.115 8.0131 97.935 8.1931C97.755 8.4181 97.575 8.5531 97.53 8.5531C97.44 8.5531 97.53 8.4181 97.71 8.1931ZM97.215 9.0931C97.215 9.1381 96.855 9.4981 96.495 9.9031C96.09 10.2631 95.73 10.5331 95.73 10.4881C95.73 10.3981 96.09 10.0381 96.495 9.6331C96.855 9.2731 97.215 9.0031 97.215 9.0931ZM97.17 6.3931C97.215 6.3931 97.08 6.6181 96.855 6.8881C96.585 7.1131 96.36 7.3381 96.27 7.3381C96.225 7.3381 96.36 7.1131 96.585 6.8881C96.855 6.6181 97.08 6.3931 97.17 6.3931ZM96 6.0331C96.315 5.6731 96.63 5.4031 96.675 5.4031C96.765 5.4031 96.54 5.6731 96.225 6.0331C95.91 6.3481 95.595 6.6181 95.55 6.6181C95.46 6.6181 95.685 6.3481 96 6.0331ZM89.565 14.8081C90.6 12.7381 92.94 9.3631 94.335 7.8331L95.325 6.7531L94.47 7.8331C93.975 8.4181 93.03 9.7231 92.355 10.7131C91.635 11.6581 90.555 13.4581 89.925 14.7181C88.53 17.2831 88.305 17.3281 89.565 14.8081ZM90.69 15.0331C91.59 13.2781 93.75 10.1281 94.92 8.8681L96.045 7.6981L95.1 8.8681C94.56 9.4981 93.615 10.8031 92.94 11.7481C92.31 12.7381 91.41 14.1781 90.96 14.9881C90.105 16.6081 89.88 16.6531 90.69 15.0331ZM114.9 21.2881C114.585 21.6031 114.27 21.8731 114.225 21.8731C114.135 21.8731 114.36 21.6031 114.63 21.2881C114.945 20.9731 115.26 20.6581 115.35 20.6581C115.395 20.6581 115.215 20.9731 114.9 21.2881ZM115.845 21.7831C115.71 21.9631 115.485 22.1431 115.44 22.1431C115.395 22.1431 115.44 21.9631 115.62 21.7831C115.8 21.5581 115.98 21.4231 116.025 21.4231C116.115 21.4231 116.025 21.5581 115.845 21.7831ZM116.835 20.5681C116.655 20.7481 116.475 20.9281 116.43 20.9281C116.34 20.9281 116.43 20.7481 116.61 20.5681C116.745 20.3431 116.925 20.2081 117.015 20.2081C117.06 20.2081 117.015 20.3431 116.835 20.5681ZM118.77 20.7931C118.59 21.0181 118.41 21.1531 118.365 21.1531C118.275 21.1531 118.365 21.0181 118.545 20.7931C118.68 20.6131 118.905 20.4331 118.95 20.4331C119.04 20.4331 118.95 20.6131 118.77 20.7931ZM119.76 19.4431C119.625 19.7131 119.355 19.9831 119.22 20.0731C119.085 20.1631 119.13 19.9831 119.4 19.6231C119.85 18.8581 120.12 18.7681 119.76 19.4431Z" fill="#F4ECFE"/>
<path d="M132.975 20.2931C132.75 20.5681 132.7 20.5681 132.775 20.3681C132.9 20.0431 132.9 20.0431 132.875 19.7181C132.85 19.3931 132.475 19.4181 132.175 19.7931C131.9 20.0931 131.9 20.0931 132.05 19.7931C132.25 19.3931 132.225 19.2181 132.025 19.2181C131.8 19.2181 131.4 19.9181 130.85 21.2681C130.25 22.7931 129.45 24.3431 128.975 24.8681C128.55 25.3181 128.55 25.3181 129.025 24.6681C129.725 23.6431 131.65 19.4181 131.475 19.2681C131.275 19.0681 131 19.3931 130.65 20.3181C130.05 21.8431 129.15 23.6681 128.675 24.3181C128.25 24.8681 128.225 24.8931 128.125 24.5931C128 24.2681 128.075 22.6931 128.3 20.5681C128.5 18.7431 128.475 18.0431 128.225 17.7931C128.1 17.6681 128.025 17.4931 128.025 17.3681C128.025 17.2181 127.925 17.1931 127.675 17.2431C127.425 17.3181 127.35 17.2931 127.35 17.1431C127.35 16.8681 127.225 16.8681 126.9 17.1681C126.65 17.3931 126.65 17.3931 126.725 17.0931C126.8 16.8181 126.775 16.7681 126.6 16.8181C126.45 16.8431 126.1 17.4931 125.6 18.6931C125.175 19.7181 124.5 21.0431 124.075 21.6681C123.35 22.7431 122.05 24.1931 121.8 24.1931C121.675 24.1931 121.675 23.9681 121.675 22.5181C121.7 21.7181 121.825 20.3181 122.025 18.5431C122.075 18.1181 121.525 17.2431 121.075 17.0431C120.8 16.8931 120.7 16.9181 120.55 17.1431C120.375 17.3681 120.35 17.3681 120.425 17.1681C120.5 16.9181 120.275 16.8431 119.975 17.0431C119.775 17.1681 119.725 17.5181 119.475 19.8431C119.175 22.7931 119.325 23.7431 120.3 24.9431C121.3 26.1681 122.425 26.5431 123.45 26.0181C123.7 25.8931 124.325 25.3681 124.8 24.8681C125.675 23.9431 125.875 23.8681 125.875 24.3681C125.875 24.9931 127.175 26.6181 127.95 26.9681C128.175 27.0681 128.575 27.1431 128.875 27.1431C129.325 27.1681 129.475 27.0681 130.15 26.3931C131 25.5431 131.975 23.7931 132.65 21.8431C132.875 21.2431 133.1 20.7181 133.15 20.6431C133.225 20.5681 133.275 20.3931 133.275 20.2431C133.25 19.9681 133.25 19.9681 132.975 20.2931ZM124.65 24.5431C124.425 24.7431 124.25 24.8931 124.25 24.8431C124.25 24.8181 124.425 24.6181 124.65 24.3931C124.875 24.1931 125.05 24.0431 125.05 24.0681C125.05 24.1181 124.875 24.3181 124.65 24.5431ZM124.95 22.5681C124.825 22.7931 124.425 23.3181 124.075 23.6931L123.425 24.3931L124.075 23.5931C124.425 23.1431 124.825 22.6181 124.95 22.4431C125.2 22.1181 125.2 22.1181 124.95 22.5681ZM125.6 23.3681C125.525 23.4931 125.375 23.6931 125.25 23.7931C125.1 23.9181 125.125 23.8181 125.325 23.5681C125.675 23.0681 125.8 22.9931 125.6 23.3681ZM124.375 22.3181C123.775 23.1931 123.025 24.0181 123.025 23.8431C123.025 23.7681 123.2 23.5681 123.375 23.3931C123.825 22.9681 124.575 21.8431 125.225 20.6181C125.5 20.1181 125.725 19.7431 125.725 19.7931C125.725 19.9931 124.875 21.5681 124.375 22.3181ZM130.025 24.4431C129.85 24.7431 129.6 25.1181 129.45 25.2431C129.325 25.3681 129.425 25.1431 129.7 24.7431C130.325 23.7931 130.425 23.6931 130.025 24.4431ZM130.85 24.9681C130.675 25.2931 130.4 25.6431 130.275 25.7681C130.125 25.9181 130.225 25.6681 130.5 25.2681C131.125 24.3431 131.25 24.2431 130.85 24.9681Z" fill="#F4ECFE"/>
<path d="M142.401 20.5931L141.901 21.0431L142.276 20.5681C142.626 20.1431 142.701 19.6181 142.426 19.5181C142.351 19.4931 142.026 19.7181 141.676 19.9931L141.076 20.4931L141.601 19.8931C142.176 19.2681 142.101 19.0431 141.476 19.4431C141.251 19.5681 141.151 19.5931 141.251 19.4931C141.451 19.2681 141.476 19.0681 141.301 19.0681C141.076 19.0681 138.351 21.2431 136.776 22.6681C136.201 23.2181 135.651 23.6681 135.576 23.6681C135.351 23.6681 133.451 22.0181 133.101 21.5181C132.226 20.2181 133.301 18.7431 135.226 18.5681L136.026 18.4931V18.9181C136.026 19.1681 135.851 19.5931 135.576 20.0181C135.301 20.4181 135.101 20.7931 135.101 20.8931C135.101 21.1681 135.376 21.7681 135.501 21.7681C135.576 21.7681 135.801 21.4931 136.051 21.1681C136.301 20.8431 136.501 20.5681 136.551 20.5681C136.626 20.5681 136.451 20.8431 136.026 21.3931C135.601 21.9181 135.526 22.1681 135.801 22.1931C135.901 22.1931 136.151 22.2181 136.376 22.2681C136.701 22.2931 136.876 22.2181 137.151 21.9431C139.051 19.9181 138.026 17.2681 135.176 16.8181C134.326 16.6681 133.101 16.7681 132.526 17.0431C130.801 17.8181 130.176 19.3681 130.926 20.8931C131.401 21.8181 132.501 23.0931 133.601 23.9181C134.126 24.3431 134.551 24.7181 134.551 24.7431C134.551 24.8181 134.326 25.1431 133.501 26.1681C133.201 26.5181 132.801 27.4431 132.726 27.9431C132.576 28.9431 133.551 30.3931 134.726 30.9181C135.326 31.1931 135.876 31.2431 136.776 31.0931C137.451 30.9931 138.601 29.8931 138.826 29.1431C139.151 28.0681 138.726 26.5681 137.801 25.5931C137.551 25.3181 137.551 25.3181 137.826 24.9681C138.176 24.5681 139.901 23.0681 141.226 22.0181C142.451 21.0181 143.026 20.4681 143.026 20.2931C143.026 20.0931 142.951 20.1181 142.401 20.5931ZM136.976 21.4431C137.076 21.3181 137.176 21.2431 137.226 21.2431C137.251 21.2431 137.201 21.3181 137.126 21.4431C137.026 21.5431 136.926 21.6431 136.876 21.6431C136.851 21.6431 136.876 21.5431 136.976 21.4431ZM136.301 19.8181C136.301 19.8681 136.126 20.2181 135.876 20.5931C135.651 20.9431 135.451 21.2431 135.401 21.2431C135.351 21.2431 135.376 21.1931 135.926 20.2931C136.126 19.9681 136.301 19.7431 136.301 19.8181ZM131.576 18.4181C131.176 19.0181 131.201 19.0181 131.201 18.8431C131.201 18.7681 131.351 18.5181 131.551 18.3181L131.876 17.9431L131.576 18.4181ZM132.201 18.6681C132.076 18.8181 131.926 18.9431 131.901 18.9431C131.851 18.9431 131.926 18.8181 132.076 18.6681C132.201 18.5181 132.351 18.4181 132.376 18.4181C132.401 18.4181 132.326 18.5181 132.201 18.6681ZM132.801 19.2931C132.901 19.1681 133.001 19.0681 133.051 19.0681C133.076 19.0681 133.026 19.1681 132.951 19.2931C132.851 19.3931 132.751 19.4931 132.701 19.4931C132.676 19.4931 132.726 19.3931 132.801 19.2931ZM140.751 19.9431C140.851 19.8431 140.951 19.7431 140.976 19.7431C141.026 19.7431 140.976 19.8431 140.876 19.9431C140.801 20.0681 140.676 20.1681 140.651 20.1681C140.601 20.1681 140.651 20.0681 140.751 19.9431ZM137.926 22.2431C138.101 22.0681 138.276 21.9181 138.301 21.9181C138.351 21.9181 138.226 22.0681 138.051 22.2431C137.876 22.4181 137.701 22.5931 137.676 22.5931C137.626 22.5931 137.751 22.4181 137.926 22.2431ZM137.251 23.7181C136.926 24.0681 136.626 24.3431 136.576 24.3431C136.551 24.3431 136.776 24.0681 137.126 23.7181C137.451 23.3931 137.751 23.1181 137.776 23.1181C137.801 23.1181 137.576 23.3931 137.251 23.7181ZM136.776 23.2431C137.176 22.8431 137.526 22.5431 137.526 22.5931C137.526 22.6181 137.176 22.9931 136.776 23.3931C136.376 23.7931 136.026 24.0931 136.026 24.0431C136.026 24.0181 136.376 23.6681 136.776 23.2431ZM135.701 26.5681C136.151 25.9931 136.301 25.9181 135.901 26.4931C135.751 26.6931 135.551 26.9181 135.476 26.9681C135.376 27.0181 135.476 26.8431 135.701 26.5681ZM133.626 27.0181C133.476 27.2931 133.351 27.4181 133.351 27.3431C133.351 27.1431 134.576 25.3931 134.901 25.1431C135.051 25.0181 134.876 25.2931 134.526 25.7431C134.201 26.1931 133.801 26.7681 133.626 27.0181ZM134.676 26.4181C135.101 25.7931 135.551 25.2931 135.376 25.6181C135.301 25.7681 135.051 26.0931 134.826 26.3431C134.451 26.7431 134.426 26.7681 134.676 26.4181ZM135.626 28.9681C135.276 29.1681 134.826 29.2431 134.826 29.1181C134.826 28.6931 136.151 26.4931 136.426 26.4931C136.601 26.4931 136.726 27.2681 136.626 27.6681C136.501 28.1931 136.076 28.7431 135.626 28.9681ZM136.626 28.8681L136.276 29.2431L136.576 28.7681C136.976 28.1681 136.976 28.1681 136.976 28.3431C136.976 28.4181 136.826 28.6681 136.626 28.8681ZM137.276 29.1431C137.101 29.4681 136.976 29.5431 136.976 29.3181C136.976 29.2681 137.076 29.1181 137.201 29.0181C137.401 28.8681 137.401 28.8681 137.276 29.1431ZM137.726 29.9931C137.851 29.8431 138.001 29.7181 138.026 29.7181C138.076 29.7181 137.976 29.8431 137.851 29.9931C137.726 30.1431 137.576 30.2431 137.551 30.2431C137.501 30.2431 137.576 30.1431 137.726 29.9931ZM138.001 24.3431C137.576 24.7431 137.251 25.0431 137.251 24.9931C137.251 24.9681 137.576 24.5931 138.001 24.1931C138.401 23.7931 138.726 23.4931 138.726 23.5431C138.726 23.5681 138.401 23.9181 138.001 24.3431ZM138.326 22.7931C138.101 22.9931 137.926 23.1431 137.926 23.0931C137.926 23.0681 138.101 22.8681 138.326 22.6431C138.551 22.4431 138.726 22.2931 138.726 22.3181C138.726 22.3681 138.551 22.5681 138.326 22.7931ZM138.626 21.7681C138.576 21.7681 138.651 21.6431 138.801 21.4931C138.926 21.3431 139.076 21.2431 139.101 21.2431C139.151 21.2431 139.076 21.3431 138.926 21.4931C138.801 21.6431 138.651 21.7681 138.626 21.7681ZM139.401 23.0431C139.226 23.2431 139.051 23.3931 139.026 23.3931C138.976 23.3931 139.101 23.2431 139.276 23.0431C139.451 22.8681 139.626 22.7181 139.651 22.7181C139.676 22.7181 139.576 22.8681 139.401 23.0431ZM140.351 20.3681C140.251 20.4681 140.151 20.5681 140.101 20.5681C140.076 20.5681 140.126 20.4681 140.201 20.3681C140.301 20.2431 140.401 20.1681 140.451 20.1681C140.476 20.1681 140.426 20.2431 140.351 20.3681ZM140.826 21.9181C140.676 22.0431 140.551 22.1681 140.501 22.1681C140.476 22.1681 140.551 22.0431 140.676 21.9181C140.826 21.7681 140.951 21.6431 141.001 21.6431C141.026 21.6431 140.951 21.7681 140.826 21.9181Z" fill="#F4ECFE"/>
<path d="M151.642 14.0431C151.567 14.0931 151.517 13.9681 151.542 13.7431C151.567 13.4681 151.517 13.3431 151.292 13.2181C151.117 13.1431 151.017 13.0431 151.067 12.9931C151.092 12.9431 150.917 12.8431 150.642 12.7431C150.167 12.5931 147.617 12.6431 146.342 12.8181C146.117 12.8431 145.467 12.9181 144.892 12.9681L143.842 13.0431L143.867 11.5931C143.942 9.9181 143.767 9.4181 142.992 9.0431C142.592 8.8431 142.567 8.8681 142.392 9.0681C142.242 9.2931 142.242 9.2931 142.242 9.0681C142.242 8.9181 142.142 8.8431 141.992 8.8681C141.792 8.9181 141.742 9.1931 141.592 11.0681C141.517 12.2431 141.392 13.2431 141.317 13.2931C141.267 13.3431 140.892 13.4681 140.492 13.5431C137.642 14.2181 136.917 15.6681 138.542 17.4181C139.467 18.4181 140.292 18.2681 139.942 17.1931C139.792 16.7431 139.792 16.6181 139.992 16.3181C140.117 16.1181 140.367 15.9181 140.567 15.8431C141.242 15.5931 141.217 15.4681 140.942 17.8681C140.892 18.1931 140.867 19.5181 140.867 20.8181C140.867 23.2931 141.017 24.3431 141.567 25.4181C141.867 25.9931 142.892 26.9681 143.492 27.2181C144.067 27.4931 144.842 27.4681 145.367 27.2181C146.442 26.6681 148.392 24.0931 149.642 21.5431C150.317 20.1931 150.442 19.6181 149.892 20.2931L149.617 20.6181L149.767 20.2681C149.892 20.0181 149.892 19.8431 149.767 19.6431C149.567 19.2431 149.467 19.2681 149.192 19.7681C148.917 20.2181 148.717 20.2181 148.942 19.7681C149.142 19.3931 149.142 19.2181 148.917 19.2181C148.792 19.2181 148.392 19.8431 148.017 20.5931C147.242 22.0931 145.942 24.0931 145.392 24.6181C145.192 24.7931 145.442 24.3681 145.967 23.6681C147.367 21.8181 148.917 18.6931 148.217 19.1931C148.142 19.2431 147.742 19.8931 147.367 20.6181C146.292 22.6181 144.192 25.4181 143.742 25.4181C143.192 25.4181 143.067 20.2431 143.517 16.1931C143.567 15.7431 143.617 15.3681 143.642 15.3431C143.692 15.2931 145.717 15.0681 147.017 14.9931C150.942 14.6931 152.092 14.4931 151.842 14.0931C151.817 14.0181 151.717 13.9931 151.642 14.0431ZM138.592 15.0181C138.267 15.4681 138.192 15.5181 138.192 15.3431C138.192 15.2681 138.342 15.0681 138.542 14.8931L138.917 14.5681L138.592 15.0181ZM149.117 21.5681C149.292 21.2431 149.442 20.9931 149.467 21.0181C149.492 21.0431 149.392 21.3181 149.242 21.6181C148.867 22.3681 148.767 22.3181 149.117 21.5681ZM148.517 22.8431C148.617 22.8431 148.017 23.7931 147.392 24.6181C147.067 25.0431 146.742 25.4431 146.642 25.4931C146.567 25.5431 146.817 25.1931 147.167 24.7181C147.542 24.2431 147.967 23.6431 148.142 23.3431C148.317 23.0681 148.467 22.8431 148.517 22.8431ZM146.492 24.0681C146.892 23.5181 147.492 22.6181 147.767 22.0681C148.067 21.5431 148.342 21.0931 148.367 21.0931C148.467 21.0931 147.867 22.2181 147.292 23.1181C146.967 23.5931 146.492 24.2431 146.217 24.5431C145.917 24.8431 146.017 24.6681 146.492 24.0681Z" fill="#F4ECFE"/>
<path d="M164.144 21.0431C164.044 21.1181 164.019 21.0431 164.069 20.8181C164.194 20.3181 163.994 20.0931 163.644 20.2931C163.369 20.4431 163.344 20.4181 163.494 20.1681C163.569 20.0181 163.619 19.8681 163.619 19.8181C163.619 19.6431 163.219 19.7931 162.744 20.1681C162.444 20.3931 162.044 20.6681 161.819 20.7931C161.344 20.9931 161.494 20.8681 162.469 20.1931C162.819 19.9431 163.094 19.6931 163.094 19.6181C163.094 19.3931 162.669 19.4681 162.369 19.7431C162.219 19.8931 161.544 20.2931 160.869 20.6431L159.669 21.2681L159.619 20.8931C159.319 18.0431 156.794 15.2931 154.319 15.0681C153.319 14.9931 152.244 15.4431 151.694 16.2181C151.469 16.5431 151.019 16.9181 150.594 17.1181C149.819 17.5431 148.519 18.8431 147.994 19.7681C147.544 20.5181 147.294 21.7431 147.419 22.4931C147.544 23.1931 148.294 24.7681 148.894 25.4931C149.519 26.2431 150.569 26.8931 151.644 27.1931C153.169 27.5681 154.619 27.4431 155.919 26.8181C156.719 26.4181 158.094 25.2181 158.519 24.5431C158.719 24.1931 158.944 24.0431 159.594 23.8681C160.619 23.5931 163.119 22.3181 163.794 21.7681C164.069 21.5431 164.294 21.2681 164.294 21.1431C164.294 21.0431 164.244 20.9931 164.144 21.0431ZM152.619 15.9681C152.944 15.7431 152.994 15.7181 152.869 15.8931C152.669 16.1431 152.194 16.4431 152.194 16.3431C152.194 16.2931 152.394 16.1431 152.619 15.9681ZM148.894 19.2681L149.569 18.5681C149.944 18.1681 150.419 17.7681 150.644 17.6431L151.044 17.4681L150.694 17.6931C150.519 17.8181 150.044 18.2431 149.619 18.5931L148.894 19.2681ZM150.694 18.4681C150.619 18.5931 150.519 18.6681 150.469 18.6681C150.444 18.6681 150.469 18.5931 150.569 18.4681C150.669 18.3681 150.769 18.2681 150.794 18.2681C150.844 18.2681 150.794 18.3681 150.694 18.4681ZM153.894 24.9181C152.469 25.3181 150.944 25.2681 150.219 24.8181C149.769 24.5181 149.369 23.6431 149.369 23.0181C149.369 22.3431 150.119 20.7931 150.744 20.1681L151.219 19.7181L151.769 20.8181C152.469 22.1931 153.219 22.9431 154.469 23.5681L155.444 24.0181L155.019 24.3681C154.769 24.5681 154.269 24.8181 153.894 24.9181ZM155.369 24.7181C156.044 24.1931 156.169 24.1431 155.694 24.5931C155.444 24.8181 155.169 24.9931 155.094 24.9931C155.044 24.9931 155.144 24.8681 155.369 24.7181ZM156.019 24.9931C156.294 24.7431 156.544 24.5931 156.569 24.6431C156.619 24.6681 156.444 24.8681 156.194 25.0681C155.544 25.5431 155.444 25.4931 156.019 24.9931ZM157.294 25.3181C157.119 25.5431 156.794 25.8181 156.569 25.9931C156.094 26.3181 156.219 26.1681 157.044 25.4681C157.444 25.1181 157.519 25.0681 157.294 25.3181ZM157.344 21.2181C157.144 21.8681 157.094 21.9181 156.644 21.9181C156.369 21.9181 156.069 21.9431 155.944 21.9681C155.844 21.9681 155.494 21.9431 155.169 21.8931C153.694 21.6181 152.969 20.7931 153.019 19.4931L153.069 18.7431L153.819 18.6681C154.744 18.5931 155.044 18.3681 154.919 17.8931C154.869 17.6931 154.794 17.4681 154.719 17.3681C154.619 17.2431 154.669 17.1931 154.994 17.1931C155.869 17.1931 156.944 17.8681 157.394 18.6931C157.644 19.1931 157.619 20.3681 157.344 21.2181ZM161.819 21.4181C161.894 21.3431 162.194 21.1431 162.494 20.9681C162.794 20.8181 162.894 20.7681 162.744 20.8931C162.444 21.1431 161.594 21.6181 161.819 21.4181ZM160.769 21.2181C160.869 21.1181 160.969 21.0931 161.019 21.1181C161.044 21.1681 160.969 21.2431 160.844 21.2931C160.644 21.3681 160.644 21.3431 160.769 21.2181ZM160.394 22.0431C160.519 21.9681 160.669 21.9181 160.744 21.9181C160.819 21.9181 160.769 21.9681 160.669 22.0431C160.569 22.1181 160.394 22.1681 160.344 22.1681C160.269 22.1681 160.294 22.1181 160.394 22.0431ZM161.069 22.9181C160.894 23.0181 160.669 23.1181 160.594 23.1181C160.519 23.1181 160.619 23.0181 160.794 22.9181C160.994 22.8181 161.194 22.7181 161.269 22.7181C161.344 22.7181 161.269 22.8181 161.069 22.9181ZM161.644 22.6431C161.469 22.7181 161.444 22.6931 161.569 22.5681C161.669 22.4681 161.769 22.4431 161.819 22.4681C161.869 22.5181 161.794 22.5931 161.644 22.6431ZM162.419 22.2431C162.194 22.3681 162.019 22.4181 162.019 22.3931C162.019 22.3431 162.194 22.2181 162.419 22.1181C162.644 21.9931 162.819 21.9431 162.819 21.9681C162.819 21.9931 162.644 22.1181 162.419 22.2431Z" fill="#F4ECFE"/>
<path d="M179.029 21.1681C178.929 21.1931 178.854 21.1681 178.854 21.0931C178.854 20.9931 178.729 20.9681 178.529 21.0181C178.329 21.0681 178.179 21.0431 178.154 20.9431C178.054 20.5931 177.779 21.0181 177.804 21.4931C177.829 22.1431 177.704 22.6931 177.229 24.0681C176.004 27.4431 173.979 30.7431 173.279 30.4931C172.804 30.2931 171.804 27.5181 171.654 25.8681C171.579 25.1181 171.579 21.1681 171.654 20.2931C171.829 18.2431 172.304 15.3681 172.879 12.9431C173.329 10.9931 173.454 9.9181 173.229 9.9181C173.179 9.9181 173.079 9.7931 173.004 9.6431C172.929 9.4681 172.679 9.2431 172.454 9.1181C172.104 8.8931 172.029 8.8931 171.829 9.0931C171.604 9.2931 171.579 9.2931 171.679 9.0681C171.729 8.9181 171.679 8.8431 171.554 8.8431C171.254 8.8431 171.129 9.0681 170.954 10.0681C170.879 10.5431 170.679 11.4181 170.529 12.0181C170.379 12.5931 170.054 14.1181 169.854 15.3681C169.504 17.3681 169.304 18.1681 169.304 17.6181C169.304 17.4931 169.204 17.4681 169.029 17.4931C168.879 17.5431 168.479 17.4931 168.129 17.3931C167.004 17.0431 165.904 17.1681 164.779 17.7681C163.929 18.2181 162.329 19.9181 161.779 20.9681C160.579 23.2431 160.729 25.2181 162.204 26.5681C163.354 27.6431 164.504 27.9431 165.479 27.4431C166.604 26.8931 167.854 25.5931 168.654 24.2181C168.879 23.8181 169.079 23.5181 169.104 23.5431C169.129 23.5681 169.179 23.9181 169.204 24.3431C169.304 25.3681 169.554 26.8681 169.704 27.4681C170.279 29.5431 172.079 31.7431 173.654 32.2931C174.879 32.7181 175.704 32.2181 177.079 30.1681C178.429 28.1431 180.204 23.4431 180.029 22.2931C179.929 21.6931 179.354 21.0431 179.029 21.1681ZM164.329 20.7681C164.404 20.6431 164.529 20.5681 164.554 20.5681C164.604 20.5681 164.554 20.6431 164.454 20.7681C164.354 20.8681 164.254 20.9681 164.229 20.9681C164.179 20.9681 164.229 20.8681 164.329 20.7681ZM164.079 21.1681C164.154 21.1181 164.104 21.2181 163.979 21.4181C163.854 21.6181 163.729 21.7681 163.704 21.7681C163.604 21.7681 163.904 21.2431 164.079 21.1681ZM163.504 20.2181C163.604 20.1181 163.704 20.0181 163.754 20.0181C163.779 20.0181 163.729 20.1181 163.654 20.2181C163.554 20.3431 163.454 20.4181 163.404 20.4181C163.379 20.4181 163.429 20.3431 163.504 20.2181ZM162.104 21.6431C161.854 22.1931 161.629 22.5681 161.629 22.4681C161.629 22.1681 162.404 20.6431 162.779 20.2181L163.129 19.8181L162.854 20.2431C162.704 20.4681 162.354 21.1181 162.104 21.6431ZM163.279 20.7931C163.179 20.9181 163.029 21.1431 162.904 21.2931C162.704 21.5431 162.704 21.5431 162.904 21.1431C163.004 20.9181 163.179 20.6681 163.254 20.6181C163.354 20.5431 163.354 20.5931 163.279 20.7931ZM164.154 25.5431C163.879 25.6931 163.629 25.8181 163.604 25.8181C163.279 25.8181 163.254 24.1181 163.579 23.0931C163.804 22.3181 164.429 21.2431 165.104 20.5181C165.604 19.9681 166.954 19.1181 167.579 18.9431C168.429 18.7181 168.479 18.8931 167.954 20.1181C166.779 22.8931 165.329 24.9431 164.154 25.5431ZM166.904 24.4431C166.479 24.8931 166.504 24.8931 166.979 24.1931C167.279 23.7931 167.629 23.2681 167.754 23.0181C167.854 22.7681 168.004 22.5931 168.029 22.5931C168.079 22.5931 167.929 22.8931 167.729 23.2681C167.529 23.6431 167.154 24.1681 166.904 24.4431ZM168.279 24.1681C168.129 24.4181 167.854 24.8181 167.654 25.0431C167.379 25.3681 167.404 25.2681 167.779 24.7431C168.379 23.8431 168.629 23.5681 168.279 24.1681ZM167.454 22.5931C167.254 22.9181 166.854 23.4931 166.579 23.8931C166.304 24.2681 166.004 24.6181 165.929 24.6681C165.854 24.7181 166.004 24.4681 166.254 24.1431C167.004 23.1431 167.629 22.0181 168.279 20.4431C168.629 19.6681 168.879 19.0931 168.904 19.1681C168.904 19.3931 167.854 21.8931 167.454 22.5931ZM168.829 23.1931C168.629 23.4431 168.629 23.4431 168.779 23.1181C168.979 22.7181 169.029 22.6431 169.029 22.7931C169.029 22.8681 168.929 23.0431 168.829 23.1931ZM171.154 11.8431C171.104 11.9431 171.079 11.9181 171.054 11.7431C171.054 11.6181 171.079 11.5431 171.129 11.5681C171.179 11.6181 171.179 11.7431 171.154 11.8431ZM176.304 30.6431C176.154 30.8681 175.954 31.0931 175.879 31.1431C175.779 31.1931 175.879 31.0181 176.104 30.7431C176.554 30.1681 176.704 30.0931 176.304 30.6431ZM177.054 29.5681C176.929 29.7931 176.779 30.0181 176.704 30.0431C176.629 30.0931 176.704 29.9181 176.854 29.6681C177.204 29.0681 177.329 29.0181 177.054 29.5681ZM175.954 29.4681C175.629 29.9431 175.254 30.4431 175.129 30.5431C175.004 30.6431 175.154 30.3681 175.479 29.9431C175.804 29.4931 176.329 28.6431 176.654 28.0431C176.979 27.4431 177.254 26.9931 177.254 27.0681C177.254 27.2681 176.554 28.5681 175.954 29.4681ZM175.704 28.6931C175.379 29.2431 175.004 29.7431 174.904 29.8431C174.779 29.9431 174.979 29.5931 175.304 29.0931C175.979 28.0931 176.504 27.1181 176.979 25.9181C177.129 25.4681 177.304 25.1681 177.354 25.1931C177.454 25.2931 176.354 27.6681 175.704 28.6931ZM177.529 28.6681C177.404 28.8181 177.379 28.7931 177.454 28.5931C177.504 28.4681 177.579 28.3931 177.629 28.4431C177.654 28.4681 177.629 28.5931 177.529 28.6681ZM177.779 24.1681C177.604 24.6181 177.454 24.9931 177.429 24.9931C177.354 24.9931 177.429 24.7431 177.804 23.7181C177.929 23.3431 178.029 23.1181 178.054 23.1931C178.054 23.2681 177.929 23.7181 177.779 24.1681Z" fill="#F4ECFE"/>
<path d="M178.937 14.9681C178.937 15.0931 179.512 15.6681 179.812 15.8181C180.912 16.4181 182.112 15.2681 181.462 14.2431C180.962 13.4181 179.287 13.0431 178.862 13.6181C178.537 14.0681 178.487 14.5181 178.712 14.7181C178.837 14.7931 178.937 14.9181 178.937 14.9681ZM185.862 21.2431C185.762 21.2431 185.687 21.1181 185.687 20.9681C185.687 20.6431 185.337 20.4681 185.087 20.6681C184.962 20.7931 184.912 20.7681 184.937 20.5931C184.937 20.1681 184.662 20.2181 184.337 20.6931C184.162 20.9681 184.062 21.0431 184.112 20.8931C184.362 20.2931 184.362 20.1681 184.162 20.1681C184.037 20.1681 183.837 20.4681 183.662 20.8681C183.162 22.0681 182.337 23.3181 181.362 24.3181C180.862 24.8431 180.362 25.2681 180.287 25.2681C180.037 25.2681 180.137 23.7931 180.512 21.5431C180.837 19.6181 180.862 19.3181 180.687 19.2181C180.587 19.1431 180.537 19.0931 180.587 19.0931C180.762 19.0681 180.287 18.4431 179.937 18.2181C179.662 18.0431 179.562 18.0181 179.412 18.1431C179.262 18.2681 179.212 18.2681 179.212 18.0931C179.212 17.9681 179.162 17.8681 179.112 17.8681C178.837 17.8681 178.562 18.3681 178.487 19.0181C178.437 19.3931 178.362 19.8931 178.312 20.1681C178.287 20.4181 178.162 21.0181 178.062 21.4681C177.837 22.4431 177.812 24.7181 177.987 25.3931C178.187 26.0181 179.387 27.3431 179.912 27.5181C180.162 27.5931 180.487 27.6681 180.612 27.6931C181.412 27.7181 183.462 26.0681 184.462 24.5931C184.962 23.8431 185.737 22.3181 185.937 21.5931C186.037 21.3181 186.012 21.2431 185.862 21.2431ZM181.787 24.6431C181.887 24.4931 182.212 24.0681 182.487 23.7431C182.787 23.3931 183.262 22.6681 183.537 22.1431C183.812 21.5931 184.062 21.2181 184.062 21.2681C184.062 21.4431 183.362 22.7431 182.962 23.3181C182.537 23.9431 181.512 25.0931 181.787 24.6431ZM182.337 24.9431C182.662 24.5681 183.087 24.0431 183.287 23.7931C183.512 23.5431 183.612 23.4681 183.537 23.6181C183.437 23.7931 183.012 24.3181 182.562 24.7681C181.987 25.3431 181.912 25.3931 182.337 24.9431ZM183.362 25.2931C182.812 25.8431 182.687 25.9681 183.062 25.5431C183.437 25.1431 183.887 24.6181 184.037 24.4181C184.187 24.1931 184.337 24.0931 184.337 24.1681C184.337 24.2431 183.887 24.7681 183.362 25.2931Z" fill="#F4ECFE"/>
<path d="M200.301 21.0431C200.201 21.1181 200.176 21.0431 200.226 20.8181C200.351 20.3181 200.151 20.0931 199.801 20.2931C199.526 20.4431 199.501 20.4181 199.651 20.1681C199.726 20.0181 199.776 19.8681 199.776 19.8181C199.776 19.6431 199.376 19.7931 198.901 20.1681C198.601 20.3931 198.201 20.6681 197.976 20.7931C197.501 20.9931 197.651 20.8681 198.626 20.1931C198.976 19.9431 199.251 19.6931 199.251 19.6181C199.251 19.3931 198.826 19.4681 198.526 19.7431C198.376 19.8931 197.701 20.2931 197.026 20.6431L195.826 21.2681L195.776 20.8931C195.476 18.0431 192.951 15.2931 190.476 15.0681C189.476 14.9931 188.401 15.4431 187.851 16.2181C187.626 16.5431 187.176 16.9181 186.751 17.1181C185.976 17.5431 184.676 18.8431 184.151 19.7681C183.701 20.5181 183.451 21.7431 183.576 22.4931C183.701 23.1931 184.451 24.7681 185.051 25.4931C185.676 26.2431 186.726 26.8931 187.801 27.1931C189.326 27.5681 190.776 27.4431 192.076 26.8181C192.876 26.4181 194.251 25.2181 194.676 24.5431C194.876 24.1931 195.101 24.0431 195.751 23.8681C196.776 23.5931 199.276 22.3181 199.951 21.7681C200.226 21.5431 200.451 21.2681 200.451 21.1431C200.451 21.0431 200.401 20.9931 200.301 21.0431ZM188.776 15.9681C189.101 15.7431 189.151 15.7181 189.026 15.8931C188.826 16.1431 188.351 16.4431 188.351 16.3431C188.351 16.2931 188.551 16.1431 188.776 15.9681ZM185.051 19.2681L185.726 18.5681C186.101 18.1681 186.576 17.7681 186.801 17.6431L187.201 17.4681L186.851 17.6931C186.676 17.8181 186.201 18.2431 185.776 18.5931L185.051 19.2681ZM186.851 18.4681C186.776 18.5931 186.676 18.6681 186.626 18.6681C186.601 18.6681 186.626 18.5931 186.726 18.4681C186.826 18.3681 186.926 18.2681 186.951 18.2681C187.001 18.2681 186.951 18.3681 186.851 18.4681ZM190.051 24.9181C188.626 25.3181 187.101 25.2681 186.376 24.8181C185.926 24.5181 185.526 23.6431 185.526 23.0181C185.526 22.3431 186.276 20.7931 186.901 20.1681L187.376 19.7181L187.926 20.8181C188.626 22.1931 189.376 22.9431 190.626 23.5681L191.601 24.0181L191.176 24.3681C190.926 24.5681 190.426 24.8181 190.051 24.9181ZM191.526 24.7181C192.201 24.1931 192.326 24.1431 191.851 24.5931C191.601 24.8181 191.326 24.9931 191.251 24.9931C191.201 24.9931 191.301 24.8681 191.526 24.7181ZM192.176 24.9931C192.451 24.7431 192.701 24.5931 192.726 24.6431C192.776 24.6681 192.601 24.8681 192.351 25.0681C191.701 25.5431 191.601 25.4931 192.176 24.9931ZM193.451 25.3181C193.276 25.5431 192.951 25.8181 192.726 25.9931C192.251 26.3181 192.376 26.1681 193.201 25.4681C193.601 25.1181 193.676 25.0681 193.451 25.3181ZM193.501 21.2181C193.301 21.8681 193.251 21.9181 192.801 21.9181C192.526 21.9181 192.226 21.9431 192.101 21.9681C192.001 21.9681 191.651 21.9431 191.326 21.8931C189.851 21.6181 189.126 20.7931 189.176 19.4931L189.226 18.7431L189.976 18.6681C190.901 18.5931 191.201 18.3681 191.076 17.8931C191.026 17.6931 190.951 17.4681 190.876 17.3681C190.776 17.2431 190.826 17.1931 191.151 17.1931C192.026 17.1931 193.101 17.8681 193.551 18.6931C193.801 19.1931 193.776 20.3681 193.501 21.2181ZM197.976 21.4181C198.051 21.3431 198.351 21.1431 198.651 20.9681C198.951 20.8181 199.051 20.7681 198.901 20.8931C198.601 21.1431 197.751 21.6181 197.976 21.4181ZM196.926 21.2181C197.026 21.1181 197.126 21.0931 197.176 21.1181C197.201 21.1681 197.126 21.2431 197.001 21.2931C196.801 21.3681 196.801 21.3431 196.926 21.2181ZM196.551 22.0431C196.676 21.9681 196.826 21.9181 196.901 21.9181C196.976 21.9181 196.926 21.9681 196.826 22.0431C196.726 22.1181 196.551 22.1681 196.501 22.1681C196.426 22.1681 196.451 22.1181 196.551 22.0431ZM197.226 22.9181C197.051 23.0181 196.826 23.1181 196.751 23.1181C196.676 23.1181 196.776 23.0181 196.951 22.9181C197.151 22.8181 197.351 22.7181 197.426 22.7181C197.501 22.7181 197.426 22.8181 197.226 22.9181ZM197.801 22.6431C197.626 22.7181 197.601 22.6931 197.726 22.5681C197.826 22.4681 197.926 22.4431 197.976 22.4681C198.026 22.5181 197.951 22.5931 197.801 22.6431ZM198.576 22.2431C198.351 22.3681 198.176 22.4181 198.176 22.3931C198.176 22.3431 198.351 22.2181 198.576 22.1181C198.801 21.9931 198.976 21.9431 198.976 21.9681C198.976 21.9931 198.801 22.1181 198.576 22.2431Z" fill="#F4ECFE"/>
<path d="M33.435 18.2731L32.985 18.8581L33.255 18.2281C33.525 17.5981 33.21 16.5631 32.76 16.5631C32.67 16.5631 32.175 17.1931 31.68 18.0031C31.185 18.8131 30.6 19.5781 30.375 19.7581C30.15 19.9381 30.24 19.7131 30.6 19.2181C31.32 18.2731 31.995 16.9681 31.995 16.5631C31.995 15.9331 31.455 16.4731 30.24 18.2281C29.475 19.3081 28.755 20.2531 28.575 20.3431C28.44 20.4331 28.755 19.9381 29.295 19.2181C30.465 17.6431 31.095 16.3831 30.87 16.2031C30.555 16.0231 30.24 16.3381 29.16 18.0031C26.37 22.2331 21.195 27.0031 17.28 29.0281C13.95 30.7381 9.63 31.1881 7.335 30.0631C4.86 28.8931 3.78 25.6081 4.32 21.1981C4.815 17.4631 7.515 12.8281 11.565 8.6431C15.975 4.1431 19.08 2.3881 21.195 3.2431C21.78 3.4231 21.825 3.6031 21.825 4.6381C21.825 5.3131 21.555 6.3481 21.195 7.2481C20.88 8.0131 20.52 8.9131 20.475 9.1831C20.34 9.7231 21.24 11.0731 21.6 10.8481C21.735 10.7581 21.78 10.8931 21.69 11.0731C21.51 11.5231 23.4 11.8831 23.85 11.4781C24.345 11.0731 25.47 8.5081 25.785 7.0231C26.505 3.4231 23.94 0.768099 18.945 0.0930995C16.2 -0.311901 14.22 0.543099 10.215 3.8731C8.1 5.6281 7.425 6.3481 5.58 8.6881C1.485 13.9081 0 17.5081 0 22.2781C0 24.3481 0.09 24.9331 0.675 26.3731C1.89 29.4781 5.4 32.4031 9.045 33.3931C10.62 33.7981 13.905 33.7981 16.02 33.3931C20.385 32.4931 24.345 30.0631 28.26 25.9681C31.365 22.6831 34.515 18.2731 34.065 17.8231C33.975 17.7331 33.705 17.9131 33.435 18.2731ZM23.76 10.1281C23.895 10.0381 23.94 10.1731 23.85 10.3531C23.715 10.8031 23.535 10.8481 23.535 10.5331C23.535 10.3981 23.625 10.2181 23.76 10.1281ZM22.41 9.6331C22.23 10.0381 22.095 10.1281 22.095 9.7681C22.095 9.6781 22.185 9.4981 22.32 9.4081C22.455 9.3181 22.5 9.4081 22.41 9.6331ZM22.5 6.4381C22.545 6.5281 22.365 7.1581 22.05 7.8781C21.78 8.5981 21.465 9.2731 21.33 9.4081C21.195 9.5431 21.24 9.2281 21.465 8.6881C21.69 8.1481 22.005 7.4281 22.14 7.0231C22.275 6.6631 22.41 6.3931 22.5 6.4381ZM5.49 15.8431C5.265 16.2481 5.04 16.5631 4.995 16.5631C4.905 16.5631 5.04 16.2481 5.22 15.8431C5.445 15.4381 5.67 15.1231 5.715 15.1231C5.805 15.1231 5.67 15.4381 5.49 15.8431ZM7.425 12.6031C7.065 13.1881 6.705 13.6381 6.66 13.6381C6.48 13.6381 7.38 12.1981 7.74 11.8831C7.965 11.7031 7.785 12.0631 7.425 12.6031ZM8.505 11.1181C8.325 11.2981 8.145 11.4781 8.1 11.4781C8.01 11.4781 8.1 11.2981 8.28 11.1181C8.415 10.8931 8.64 10.7581 8.685 10.7581C8.775 10.7581 8.685 10.8931 8.505 11.1181ZM10.71 8.1931C10.845 8.0131 11.025 7.8331 11.115 7.8331C11.16 7.8331 11.115 8.0131 10.935 8.1931C10.755 8.4181 10.575 8.5531 10.53 8.5531C10.44 8.5531 10.53 8.4181 10.71 8.1931ZM10.215 9.0931C10.215 9.1381 9.855 9.4981 9.495 9.9031C9.09 10.2631 8.73 10.5331 8.73 10.4881C8.73 10.3981 9.09 10.0381 9.495 9.6331C9.855 9.2731 10.215 9.0031 10.215 9.0931ZM10.17 6.3931C10.215 6.3931 10.08 6.6181 9.855 6.8881C9.585 7.1131 9.36 7.3381 9.27 7.3381C9.225 7.3381 9.36 7.1131 9.585 6.8881C9.855 6.6181 10.08 6.3931 10.17 6.3931ZM9 6.0331C9.315 5.6731 9.63 5.4031 9.675 5.4031C9.765 5.4031 9.54 5.6731 9.225 6.0331C8.91 6.3481 8.595 6.6181 8.55 6.6181C8.46 6.6181 8.685 6.3481 9 6.0331ZM2.565 14.8081C3.6 12.7381 5.94 9.3631 7.335 7.8331L8.325 6.7531L7.47 7.8331C6.975 8.4181 6.03 9.7231 5.355 10.7131C4.635 11.6581 3.555 13.4581 2.925 14.7181C1.53 17.2831 1.305 17.3281 2.565 14.8081ZM3.69 15.0331C4.59 13.2781 6.75 10.1281 7.92 8.8681L9.045 7.6981L8.1 8.8681C7.56 9.4981 6.615 10.8031 5.94 11.7481C5.31 12.7381 4.41 14.1781 3.96 14.9881C3.105 16.6081 2.88 16.6531 3.69 15.0331ZM27.9 21.2881C27.585 21.6031 27.27 21.8731 27.225 21.8731C27.135 21.8731 27.36 21.6031 27.63 21.2881C27.945 20.9731 28.26 20.6581 28.35 20.6581C28.395 20.6581 28.215 20.9731 27.9 21.2881ZM28.845 21.7831C28.71 21.9631 28.485 22.1431 28.44 22.1431C28.395 22.1431 28.44 21.9631 28.62 21.7831C28.8 21.5581 28.98 21.4231 29.025 21.4231C29.115 21.4231 29.025 21.5581 28.845 21.7831ZM29.835 20.5681C29.655 20.7481 29.475 20.9281 29.43 20.9281C29.34 20.9281 29.43 20.7481 29.61 20.5681C29.745 20.3431 29.925 20.2081 30.015 20.2081C30.06 20.2081 30.015 20.3431 29.835 20.5681ZM31.77 20.7931C31.59 21.0181 31.41 21.1531 31.365 21.1531C31.275 21.1531 31.365 21.0181 31.545 20.7931C31.68 20.6131 31.905 20.4331 31.95 20.4331C32.04 20.4331 31.95 20.6131 31.77 20.7931ZM32.76 19.4431C32.625 19.7131 32.355 19.9831 32.22 20.0731C32.085 20.1631 32.13 19.9831 32.4 19.6231C32.85 18.8581 33.12 18.7681 32.76 19.4431Z" fill="#F4ECFE"/>
<path d="M45.775 21.5931C45.5 21.8431 45.5 21.8431 45.65 21.5681C45.775 21.3431 45.75 21.2181 45.625 21.0181C45.425 20.7681 45.425 20.7681 45.05 21.0931C44.7 21.4431 44.7 21.4431 44.85 21.1181C45.05 20.7431 44.95 20.5931 44.6 20.7931C44.4 20.9181 44.325 20.9181 44.3 20.7931C44.175 20.4931 43.75 20.8931 43.25 21.7181C42.175 23.5431 41.45 24.6181 41.05 24.9181C40.15 25.5681 39.925 25.4931 39.775 24.4681C39.575 22.9931 40.1 20.1181 40.975 17.8681C41.4 16.7931 41.4 16.3431 41 16.8681C40.8 17.1181 40.8 17.1181 40.875 16.8681C41.1 16.2681 40.5 15.8181 40.15 16.3431C40.025 16.5681 40.025 16.5681 40.075 16.2931C40.2 15.8431 39.8 15.7931 39.55 16.2181C39.375 16.5181 39.35 16.5431 39.425 16.2931C39.475 16.0431 39.45 15.9931 39.225 15.9931C39.1 15.9931 38.95 16.0681 38.9 16.1681C38.825 16.3431 38.7 16.3181 38.2 16.0431C37.375 15.5681 36.3 15.4931 34.95 15.7681C33.05 16.1931 31.775 17.3181 30.65 19.5681C30 20.8681 30 20.9181 30 22.1681C30 23.6931 30.225 24.2431 31.225 25.2181C33.025 26.9181 34.975 26.8931 36.975 25.1431L37.525 24.6431L37.95 25.2181C38.475 25.9681 39.45 26.7431 40.15 26.9431C40.475 27.0431 41 27.0681 41.4 27.0181C42.725 26.8681 43.65 26.0431 44.8 23.9431C45.225 23.1681 45.7 22.3431 45.9 22.0931C46.3 21.5681 46.2 21.2181 45.775 21.5931ZM32.95 19.6181C33 19.6181 32.975 19.7431 32.875 19.8931C32.8 20.0431 32.7 20.1681 32.675 20.1681C32.625 20.1681 32.675 20.0431 32.75 19.8931C32.825 19.7431 32.925 19.6181 32.95 19.6181ZM31.125 19.9181C30.825 20.5431 30.625 20.8931 30.675 20.6931C30.825 20.1181 31.525 18.7681 31.9 18.3431L32.225 17.9431L31.95 18.3681C31.8 18.6181 31.425 19.2931 31.125 19.9181ZM31.4 20.5181C31.4 20.3431 32.2 18.9181 32.5 18.5431L32.775 18.1931L32.525 18.6181C32.4 18.8431 32.1 19.3681 31.85 19.8181C31.6 20.2681 31.4 20.5681 31.4 20.5181ZM32.225 21.0431C32.225 20.9681 32.275 20.8181 32.35 20.6931C32.425 20.5931 32.475 20.5431 32.475 20.6181C32.475 20.6931 32.425 20.8431 32.35 20.9681C32.275 21.0681 32.225 21.1181 32.225 21.0431ZM36.9 22.1931C36.425 22.9681 36.225 23.0931 36.675 22.3431C37.15 21.5431 37.325 21.2931 37.325 21.4181C37.325 21.4931 37.15 21.8431 36.9 22.1931ZM38 18.4931C37.675 19.5681 36.4 22.0181 35.775 22.7931C35.075 23.6681 34.225 24.3681 33.5 24.6681C32.9 24.9181 32.95 24.9431 32.675 24.4931C32.275 23.8931 32.25 22.3431 32.625 21.3431C32.95 20.3931 33.6 19.3181 34.25 18.5931C34.75 18.0681 36.075 17.3931 36.85 17.2681C37.325 17.1931 37.45 17.2181 37.775 17.5931C38.15 17.9681 38.15 18.0181 38 18.4931ZM43.05 22.9181C43.525 22.1181 43.975 21.3931 44.05 21.3181C44.15 21.2431 43.875 21.7181 43.5 22.4181C43.1 23.0931 42.65 23.8181 42.475 24.0181C42.325 24.2181 42.575 23.7431 43.05 22.9181ZM44.2 24.3431C44.125 24.4681 44.025 24.5931 43.975 24.5931C43.95 24.5931 43.975 24.4681 44.05 24.3431C44.15 24.1931 44.225 24.0681 44.275 24.0681C44.3 24.0681 44.275 24.1931 44.2 24.3431ZM43.925 22.8931C43.475 23.6681 43.05 24.3681 42.975 24.3931C42.825 24.4931 44.3 21.8931 44.55 21.6431C44.675 21.5181 44.375 22.0931 43.925 22.8931ZM44.925 22.9931C44.825 23.2181 44.7 23.3931 44.65 23.3931C44.625 23.3931 44.675 23.2181 44.8 22.9931C44.925 22.7681 45.05 22.5931 45.075 22.5931C45.125 22.5931 45.05 22.7681 44.925 22.9931Z" fill="#F4ECFE"/>
<path d="M56.9992 20.4931C56.7242 20.7431 56.7242 20.7431 56.8492 20.3931C56.9492 20.1431 56.9242 19.9931 56.7992 19.7931C56.5992 19.5681 56.5742 19.5681 56.2492 19.9431L55.9242 20.3681L56.0742 19.9181C56.1492 19.6681 56.1742 19.4431 56.1492 19.3931C55.9992 19.2431 55.6492 19.6681 55.0492 20.8431C54.2992 22.2681 54.2492 22.1431 54.9742 20.6931C55.2742 20.1181 55.5242 19.5431 55.5242 19.4181C55.5242 18.8681 55.0492 19.5931 53.9492 21.8681C52.5492 24.7181 51.7242 26.0431 50.6242 27.2181L49.8492 28.0431L49.9242 26.6181C49.9742 25.8431 50.0992 24.7181 50.1992 24.1431C50.4742 22.6931 51.0742 20.5181 51.2242 20.3681C51.2992 20.2931 51.3492 20.1431 51.3492 20.0431C51.3492 19.8681 51.2992 19.8681 51.1742 19.9931C51.0992 20.0931 50.9742 20.1681 50.8992 20.1681C50.8242 20.1681 50.8242 20.0931 50.9242 19.9931C51.1492 19.7681 51.1242 19.3681 50.8742 19.2681C50.7492 19.2181 50.5742 19.2431 50.4992 19.3431C50.2492 19.5681 50.1242 19.5181 50.2992 19.2181C50.5242 18.8431 50.3492 18.7431 49.9492 19.0181C49.6242 19.2181 49.6242 19.2181 49.6992 18.9431C49.7242 18.7931 49.7492 18.6681 49.7242 18.6681C49.6742 18.6681 49.2992 18.8681 48.8742 19.0931C48.4242 19.2931 47.9492 19.4931 47.7992 19.4931C47.6242 19.4931 47.7742 19.3681 48.1992 19.1681C49.2992 18.6431 50.1492 17.3931 50.1742 16.2681C50.2242 15.0181 48.6742 13.8181 46.8992 13.7181C46.0992 13.6681 45.8992 13.7181 45.2992 14.0431C43.7742 14.8681 43.1492 16.9681 43.8992 18.6681C44.4992 20.0431 46.2742 21.3931 47.5992 21.5431C48.1492 21.6181 48.1492 21.6681 47.7242 24.0681C47.3492 26.1181 47.3742 27.6931 47.8242 28.3931C48.2492 29.0931 49.0992 29.8431 49.6742 30.0681C50.3492 30.2931 50.8492 30.1931 51.6492 29.6681C53.1742 28.6431 54.8742 26.0181 56.5242 22.0931C56.8242 21.4431 57.0992 20.8431 57.1492 20.7681C57.2242 20.6931 57.2742 20.5431 57.2742 20.4431C57.2742 20.2931 57.1992 20.2931 56.9992 20.4931ZM48.9242 18.0681C49.0242 17.9681 49.1242 17.8681 49.1492 17.8681C49.1992 17.8681 49.1492 17.9681 49.0492 18.0681C48.9742 18.1931 48.8492 18.2681 48.8242 18.2681C48.7742 18.2681 48.8242 18.1931 48.9242 18.0681ZM48.4742 17.1931C48.5242 17.1931 48.4742 17.2931 48.3742 17.3931C48.2992 17.5181 48.1992 17.5931 48.1492 17.5931C48.1242 17.5931 48.1492 17.5181 48.2492 17.3931C48.3492 17.2931 48.4492 17.1931 48.4742 17.1931ZM44.5742 15.5681C44.4492 15.7681 44.3492 15.8431 44.3492 15.7681C44.3492 15.5431 44.8242 14.8931 45.1742 14.6681C45.4742 14.4681 45.4742 14.4681 45.1492 14.8431C44.9492 15.0681 44.6992 15.3931 44.5742 15.5681ZM45.4242 15.4431C45.2742 15.6681 45.0992 15.8431 45.0742 15.8431C45.0242 15.8431 45.1242 15.6681 45.2992 15.4431C45.4492 15.2181 45.5992 15.0431 45.6492 15.0431C45.6742 15.0431 45.5742 15.2181 45.4242 15.4431ZM46.1742 19.3681C46.1242 19.2931 46.2242 19.2681 46.3742 19.3181C46.5242 19.3431 46.6242 19.3931 46.6242 19.4431C46.6242 19.5431 46.2492 19.4681 46.1742 19.3681ZM46.6492 17.3181C45.9492 17.6931 45.7742 17.6681 45.8992 17.2931C46.0992 16.6681 46.5492 16.0931 47.0492 15.8431C47.5992 15.5681 47.9742 15.4931 47.9742 15.6931C47.9742 16.0181 47.1242 17.0931 46.6492 17.3181ZM47.6992 17.1181C47.8992 16.7181 48.2492 16.2931 48.2492 16.4431C48.2492 16.5181 48.0992 16.7681 47.8992 16.9931C47.7242 17.2181 47.6242 17.2681 47.6992 17.1181ZM52.4742 26.8931C52.1742 27.2931 51.7992 27.7181 51.6742 27.8431C51.5242 27.9431 51.6992 27.6681 52.0492 27.2431C52.3992 26.8181 52.8992 26.1181 53.1742 25.6681C53.4492 25.2181 53.6992 24.8681 53.7242 24.8681C53.8492 24.8681 53.0742 26.1431 52.4742 26.8931ZM53.4242 27.2431C53.0992 27.6681 52.7492 28.1431 52.5992 28.2431C52.4742 28.3431 52.5742 28.1681 52.8492 27.8431C53.1242 27.4931 53.5492 26.8681 53.8492 26.4431C54.1242 26.0181 54.3742 25.6681 54.3992 25.6681C54.4992 25.6681 54.1742 26.1681 53.4242 27.2431ZM52.3742 25.9931C52.0492 26.4431 51.5492 27.0681 51.2992 27.3681C51.0242 27.6681 51.1992 27.3681 51.6742 26.7181C52.1742 26.0931 52.9992 24.7431 53.4992 23.7681C54.0242 22.7681 54.4492 22.0181 54.4492 22.0931C54.4492 22.3431 52.8992 25.2431 52.3742 25.9931Z" fill="#F4ECFE"/>
<path d="M71.3355 21.0431C71.2355 21.1181 71.2106 21.0431 71.2606 20.8181C71.3856 20.3181 71.1855 20.0931 70.8355 20.2931C70.5605 20.4431 70.5355 20.4181 70.6855 20.1681C70.7605 20.0181 70.8105 19.8681 70.8105 19.8181C70.8105 19.6431 70.4105 19.7931 69.9355 20.1681C69.6355 20.3931 69.2355 20.6681 69.0105 20.7931C68.5355 20.9931 68.6855 20.8681 69.6605 20.1931C70.0105 19.9431 70.2855 19.6931 70.2855 19.6181C70.2855 19.3931 69.8605 19.4681 69.5605 19.7431C69.4105 19.8931 68.7355 20.2931 68.0605 20.6431L66.8605 21.2681L66.8105 20.8931C66.5105 18.0431 63.9855 15.2931 61.5105 15.0681C60.5105 14.9931 59.4355 15.4431 58.8855 16.2181C58.6605 16.5431 58.2105 16.9181 57.7855 17.1181C57.0105 17.5431 55.7105 18.8431 55.1855 19.7681C54.7355 20.5181 54.4855 21.7431 54.6105 22.4931C54.7355 23.1931 55.4855 24.7681 56.0855 25.4931C56.7105 26.2431 57.7605 26.8931 58.8355 27.1931C60.3605 27.5681 61.8105 27.4431 63.1105 26.8181C63.9105 26.4181 65.2855 25.2181 65.7105 24.5431C65.9105 24.1931 66.1355 24.0431 66.7855 23.8681C67.8105 23.5931 70.3106 22.3181 70.9855 21.7681C71.2606 21.5431 71.4855 21.2681 71.4855 21.1431C71.4855 21.0431 71.4355 20.9931 71.3355 21.0431ZM59.8105 15.9681C60.1355 15.7431 60.1855 15.7181 60.0605 15.8931C59.8605 16.1431 59.3855 16.4431 59.3855 16.3431C59.3855 16.2931 59.5855 16.1431 59.8105 15.9681ZM56.0855 19.2681L56.7605 18.5681C57.1355 18.1681 57.6105 17.7681 57.8355 17.6431L58.2355 17.4681L57.8855 17.6931C57.7105 17.8181 57.2355 18.2431 56.8105 18.5931L56.0855 19.2681ZM57.8855 18.4681C57.8105 18.5931 57.7105 18.6681 57.6605 18.6681C57.6355 18.6681 57.6605 18.5931 57.7605 18.4681C57.8605 18.3681 57.9605 18.2681 57.9855 18.2681C58.0355 18.2681 57.9855 18.3681 57.8855 18.4681ZM61.0855 24.9181C59.6605 25.3181 58.1355 25.2681 57.4105 24.8181C56.9605 24.5181 56.5605 23.6431 56.5605 23.0181C56.5605 22.3431 57.3105 20.7931 57.9355 20.1681L58.4105 19.7181L58.9605 20.8181C59.6605 22.1931 60.4105 22.9431 61.6605 23.5681L62.6355 24.0181L62.2105 24.3681C61.9605 24.5681 61.4605 24.8181 61.0855 24.9181ZM62.5605 24.7181C63.2355 24.1931 63.3605 24.1431 62.8855 24.5931C62.6355 24.8181 62.3605 24.9931 62.2855 24.9931C62.2355 24.9931 62.3355 24.8681 62.5605 24.7181ZM63.2105 24.9931C63.4855 24.7431 63.7355 24.5931 63.7605 24.6431C63.8105 24.6681 63.6355 24.8681 63.3855 25.0681C62.7355 25.5431 62.6355 25.4931 63.2105 24.9931ZM64.4855 25.3181C64.3105 25.5431 63.9855 25.8181 63.7605 25.9931C63.2855 26.3181 63.4105 26.1681 64.2355 25.4681C64.6355 25.1181 64.7106 25.0681 64.4855 25.3181ZM64.5355 21.2181C64.3355 21.8681 64.2855 21.9181 63.8355 21.9181C63.5605 21.9181 63.2605 21.9431 63.1355 21.9681C63.0355 21.9681 62.6855 21.9431 62.3605 21.8931C60.8855 21.6181 60.1605 20.7931 60.2105 19.4931L60.2605 18.7431L61.0105 18.6681C61.9355 18.5931 62.2355 18.3681 62.1105 17.8931C62.0605 17.6931 61.9855 17.4681 61.9105 17.3681C61.8105 17.2431 61.8605 17.1931 62.1855 17.1931C63.0605 17.1931 64.1355 17.8681 64.5855 18.6931C64.8355 19.1931 64.8105 20.3681 64.5355 21.2181ZM69.0105 21.4181C69.0855 21.3431 69.3855 21.1431 69.6855 20.9681C69.9855 20.8181 70.0855 20.7681 69.9355 20.8931C69.6355 21.1431 68.7855 21.6181 69.0105 21.4181ZM67.9605 21.2181C68.0605 21.1181 68.1605 21.0931 68.2105 21.1181C68.2355 21.1681 68.1605 21.2431 68.0355 21.2931C67.8355 21.3681 67.8355 21.3431 67.9605 21.2181ZM67.5855 22.0431C67.7105 21.9681 67.8605 21.9181 67.9355 21.9181C68.0105 21.9181 67.9606 21.9681 67.8605 22.0431C67.7605 22.1181 67.5855 22.1681 67.5355 22.1681C67.4605 22.1681 67.4855 22.1181 67.5855 22.0431ZM68.2606 22.9181C68.0856 23.0181 67.8605 23.1181 67.7855 23.1181C67.7105 23.1181 67.8106 23.0181 67.9855 22.9181C68.1856 22.8181 68.3855 22.7181 68.4605 22.7181C68.5355 22.7181 68.4606 22.8181 68.2606 22.9181ZM68.8355 22.6431C68.6605 22.7181 68.6355 22.6931 68.7605 22.5681C68.8605 22.4681 68.9605 22.4431 69.0105 22.4681C69.0605 22.5181 68.9855 22.5931 68.8355 22.6431ZM69.6105 22.2431C69.3855 22.3681 69.2105 22.4181 69.2105 22.3931C69.2105 22.3431 69.3855 22.2181 69.6105 22.1181C69.8355 21.9931 70.0105 21.9431 70.0105 21.9681C70.0105 21.9931 69.8355 22.1181 69.6105 22.2431Z" fill="#F4ECFE"/>
<path d="M78.7707 21.1931C78.6707 21.2181 78.5957 21.1431 78.5957 21.0431C78.5957 20.9431 78.5207 20.7431 78.3957 20.6431C78.1957 20.4431 78.1707 20.4431 77.9457 20.7181L77.6957 21.0431L77.7707 20.6681C77.8707 20.1181 77.4957 20.1681 77.1957 20.7181L76.9957 21.1681L77.0707 20.6431C77.1957 19.8681 76.8707 20.0681 76.5207 20.9681C75.8207 22.7681 72.7707 27.0681 71.7207 27.7431L71.3707 27.9681L71.1957 27.2681C70.8707 26.0181 71.0457 22.1431 71.5207 19.4931C71.6707 18.7681 71.9957 16.1431 72.0957 15.1681C72.1457 14.6181 72.1957 14.0681 72.2207 13.9681C72.2207 13.8431 72.2957 13.2431 72.3457 12.6181C72.3957 11.9931 72.4457 11.1931 72.4957 10.8431C72.5457 10.3431 72.4957 10.0931 72.2707 9.6681C72.0957 9.3681 71.8457 9.0931 71.6707 9.0431C71.5207 8.9931 71.3707 8.8931 71.3207 8.8181C71.2457 8.7181 71.1457 8.7181 71.0207 8.8431C70.8207 8.9931 70.7957 8.9931 70.7957 8.7931C70.7957 8.6681 70.7207 8.5681 70.5957 8.5681C70.3707 8.5681 70.3207 8.8431 70.1207 11.1931C70.0457 12.1681 69.9207 13.3681 69.8457 13.8931C69.7707 14.4181 69.5707 16.0181 69.3707 17.4681C69.1707 18.9181 68.9957 20.2431 68.9457 20.4181C68.7707 21.6181 68.7207 22.7431 68.7207 24.4681C68.7457 26.9931 68.9457 27.6431 70.1957 28.8681C70.6957 29.3431 71.2207 29.7431 71.4957 29.8181C72.4957 30.1181 73.2707 29.7931 74.4207 28.6681C76.2707 26.7931 79.6457 21.0181 78.7707 21.1931ZM72.7957 27.4931L73.4207 26.7181C74.2707 25.6181 75.4957 23.7931 76.2957 22.3681C76.6707 21.7181 76.9957 21.2431 76.9957 21.2931C76.9957 21.5181 75.6457 23.7931 74.8207 24.9931C74.3957 25.6431 73.7707 26.4431 73.4207 26.8181L72.7957 27.4931ZM74.1707 26.8931C73.6957 27.3931 73.6707 27.4181 74.0457 26.9681C74.2707 26.6681 74.9457 25.7181 75.4957 24.8681C76.0707 23.9931 76.5957 23.1681 76.6957 23.0431C76.7957 22.8931 76.7707 22.9931 76.6457 23.2431C76.5207 23.5181 76.0457 24.2931 75.5707 24.9931C75.1207 25.7181 74.4707 26.5431 74.1707 26.8931ZM75.8957 26.2181C75.4457 26.8681 74.9707 27.4931 74.8207 27.6431C74.6457 27.7931 74.7207 27.6181 74.9957 27.2931C75.2457 26.9681 75.7707 26.2431 76.1207 25.7181C76.4707 25.1681 76.7957 24.7431 76.8207 24.7431C76.8957 24.7431 76.7707 24.9181 75.8957 26.2181ZM76.9207 22.5431C76.9707 22.4181 77.0457 22.3431 77.0957 22.3681C77.1457 22.4181 77.0957 22.5181 76.9957 22.6181C76.8707 22.7431 76.8707 22.7431 76.9207 22.5431ZM77.1207 24.3431C77.0457 24.4681 76.9457 24.5931 76.9207 24.5931C76.8707 24.5931 76.9207 24.4681 76.9957 24.3431C77.0707 24.1931 77.1707 24.0681 77.1957 24.0681C77.2457 24.0681 77.1957 24.1931 77.1207 24.3431ZM77.2707 22.0681C77.1457 22.2181 77.1207 22.1931 77.1957 21.9931C77.2457 21.8681 77.3207 21.7931 77.3707 21.8431C77.4207 21.8681 77.3707 21.9931 77.2707 22.0681ZM77.8707 22.9931C77.6707 23.3431 77.4957 23.6681 77.4457 23.6681C77.4207 23.6681 77.5457 23.3431 77.7207 22.9931C77.9207 22.6181 78.0957 22.3181 78.1457 22.3181C78.1707 22.3181 78.0457 22.6181 77.8707 22.9931Z" fill="#F4ECFE"/>
<path d="M135.23 42.3431V63.3431H133.1V46.5431L124.85 60.6731H123.8L115.55 46.6331V63.3431H113.42V42.3431H115.25L124.37 57.9131L133.4 42.3431H135.23Z" fill="#F4ECFE"/>
<path d="M155.842 47.5631V63.3431H153.802V60.4631C153.242 61.4231 152.472 62.1731 151.492 62.7131C150.512 63.2331 149.392 63.4931 148.132 63.4931C146.072 63.4931 144.442 62.9231 143.242 61.7831C142.062 60.6231 141.472 58.9331 141.472 56.7131V47.5631H143.602V56.5031C143.602 58.1631 144.012 59.4231 144.832 60.2831C145.652 61.1431 146.822 61.5731 148.342 61.5731C150.002 61.5731 151.312 61.0731 152.272 60.0731C153.232 59.0531 153.712 57.6431 153.712 55.8431V47.5631H155.842Z" fill="#F4ECFE"/>
<path d="M166.038 63.4931C164.758 63.4931 163.528 63.3131 162.348 62.9531C161.188 62.5731 160.278 62.1031 159.618 61.5431L160.578 59.8631C161.238 60.3831 162.068 60.8131 163.068 61.1531C164.068 61.4731 165.108 61.6331 166.188 61.6331C167.628 61.6331 168.688 61.4131 169.368 60.9731C170.068 60.5131 170.418 59.8731 170.418 59.0531C170.418 58.4731 170.228 58.0231 169.848 57.7031C169.468 57.3631 168.988 57.1131 168.408 56.9531C167.828 56.7731 167.058 56.6031 166.098 56.4431C164.818 56.2031 163.788 55.9631 163.008 55.7231C162.228 55.4631 161.558 55.0331 160.998 54.4331C160.458 53.8331 160.188 53.0031 160.188 51.9431C160.188 50.6231 160.738 49.5431 161.838 48.7031C162.938 47.8631 164.468 47.4431 166.428 47.4431C167.448 47.4431 168.468 47.5831 169.488 47.8631C170.508 48.1231 171.348 48.4731 172.008 48.9131L171.078 50.6231C169.778 49.7231 168.228 49.2731 166.428 49.2731C165.068 49.2731 164.038 49.5131 163.338 49.9931C162.658 50.4731 162.318 51.1031 162.318 51.8831C162.318 52.4831 162.508 52.9631 162.888 53.3231C163.288 53.6831 163.778 53.9531 164.358 54.1331C164.938 54.2931 165.738 54.4631 166.758 54.6431C168.018 54.8831 169.028 55.1231 169.788 55.3631C170.548 55.6031 171.198 56.0131 171.738 56.5931C172.278 57.1731 172.548 57.9731 172.548 58.9931C172.548 60.3731 171.968 61.4731 170.808 62.2931C169.668 63.0931 168.078 63.4931 166.038 63.4931Z" fill="#F4ECFE"/>
<path d="M176.486 47.5631H178.616V63.3431H176.486V47.5631ZM177.566 44.1131C177.126 44.1131 176.756 43.9631 176.456 43.6631C176.156 43.3631 176.006 43.0031 176.006 42.5831C176.006 42.1831 176.156 41.8331 176.456 41.5331C176.756 41.2331 177.126 41.0831 177.566 41.0831C178.006 41.0831 178.376 41.2331 178.676 41.5331C178.976 41.8131 179.126 42.1531 179.126 42.5531C179.126 42.9931 178.976 43.3631 178.676 43.6631C178.376 43.9631 178.006 44.1131 177.566 44.1131Z" fill="#F4ECFE"/>
<path d="M191.082 63.4931C189.522 63.4931 188.122 63.1531 186.882 62.4731C185.662 61.7931 184.702 60.8431 184.002 59.6231C183.302 58.3831 182.952 56.9931 182.952 55.4531C182.952 53.9131 183.302 52.5331 184.002 51.3131C184.702 50.0931 185.662 49.1431 186.882 48.4631C188.122 47.7831 189.522 47.4431 191.082 47.4431C192.442 47.4431 193.652 47.7131 194.712 48.2531C195.792 48.7731 196.642 49.5431 197.262 50.5631L195.672 51.6431C195.152 50.8631 194.492 50.2831 193.692 49.9031C192.892 49.5031 192.022 49.3031 191.082 49.3031C189.942 49.3031 188.912 49.5631 187.992 50.0831C187.092 50.5831 186.382 51.3031 185.862 52.2431C185.362 53.1831 185.112 54.2531 185.112 55.4531C185.112 56.6731 185.362 57.7531 185.862 58.6931C186.382 59.6131 187.092 60.3331 187.992 60.8531C188.912 61.3531 189.942 61.6031 191.082 61.6031C192.022 61.6031 192.892 61.4131 193.692 61.0331C194.492 60.6531 195.152 60.0731 195.672 59.2931L197.262 60.3731C196.642 61.3931 195.792 62.1731 194.712 62.7131C193.632 63.2331 192.422 63.4931 191.082 63.4931Z" fill="#F4ECFE"/>
<path d="M29.737 62.3831C29.337 62.7431 28.837 63.0231 28.237 63.2231C27.657 63.4031 27.047 63.4931 26.407 63.4931C24.927 63.4931 23.787 63.0931 22.987 62.2931C22.187 61.4931 21.787 60.3631 21.787 58.9031V49.3631H18.967V47.5631H21.787V44.1131H23.917V47.5631H28.717V49.3631H23.917V58.7831C23.917 59.7231 24.147 60.4431 24.607 60.9431C25.087 61.4231 25.767 61.6631 26.647 61.6631C27.087 61.6631 27.507 61.5931 27.907 61.4531C28.327 61.3131 28.687 61.1131 28.987 60.8531L29.737 62.3831Z" fill="#F4ECFE"/>
<path d="M47.8345 47.5631V63.3431H45.7945V60.4631C45.2345 61.4231 44.4645 62.1731 43.4845 62.7131C42.5045 63.2331 41.3845 63.4931 40.1245 63.4931C38.0645 63.4931 36.4345 62.9231 35.2345 61.7831C34.0545 60.6231 33.4645 58.9331 33.4645 56.7131V47.5631H35.5945V56.5031C35.5945 58.1631 36.0045 59.4231 36.8245 60.2831C37.6445 61.1431 38.8145 61.5731 40.3345 61.5731C41.9945 61.5731 43.3045 61.0731 44.2645 60.0731C45.2245 59.0531 45.7045 57.6431 45.7045 55.8431V47.5631H47.8345Z" fill="#F4ECFE"/>
<path d="M68.2001 41.0831V63.3431H66.1601V60.2231C65.5201 61.2831 64.6701 62.0931 63.6101 62.6531C62.5701 63.2131 61.3901 63.4931 60.0701 63.4931C58.5901 63.4931 57.2501 63.1531 56.0501 62.4731C54.8501 61.7931 53.9101 60.8431 53.2301 59.6231C52.5501 58.4031 52.2101 57.0131 52.2101 55.4531C52.2101 53.8931 52.5501 52.5031 53.2301 51.2831C53.9101 50.0631 54.8501 49.1231 56.0501 48.4631C57.2501 47.7831 58.5901 47.4431 60.0701 47.4431C61.3501 47.4431 62.5001 47.7131 63.5201 48.2531C64.5601 48.7731 65.4101 49.5431 66.0701 50.5631V41.0831H68.2001ZM60.2501 61.6031C61.3501 61.6031 62.3401 61.3531 63.2201 60.8531C64.1201 60.3331 64.8201 59.6031 65.3201 58.6631C65.8401 57.7231 66.1001 56.6531 66.1001 55.4531C66.1001 54.2531 65.8401 53.1831 65.3201 52.2431C64.8201 51.3031 64.1201 50.5831 63.2201 50.0831C62.3401 49.5631 61.3501 49.3031 60.2501 49.3031C59.1301 49.3031 58.1201 49.5631 57.2201 50.0831C56.3401 50.5831 55.6401 51.3031 55.1201 52.2431C54.6201 53.1831 54.3701 54.2531 54.3701 55.4531C54.3701 56.6531 54.6201 57.7231 55.1201 58.6631C55.6401 59.6031 56.3401 60.3331 57.2201 60.8531C58.1201 61.3531 59.1301 61.6031 60.2501 61.6031Z" fill="#F4ECFE"/>
<path d="M74.1321 47.5631H76.2621V63.3431H74.1321V47.5631ZM75.2121 44.1131C74.7721 44.1131 74.4021 43.9631 74.1021 43.6631C73.8021 43.3631 73.6521 43.0031 73.6521 42.5831C73.6521 42.1831 73.8021 41.8331 74.1021 41.5331C74.4021 41.2331 74.7721 41.0831 75.2121 41.0831C75.6521 41.0831 76.0221 41.2331 76.3221 41.5331C76.6221 41.8131 76.7721 42.1531 76.7721 42.5531C76.7721 42.9931 76.6221 43.3631 76.3221 43.6631C76.0221 43.9631 75.6521 44.1131 75.2121 44.1131Z" fill="#F4ECFE"/>
<path d="M88.6387 63.4931C87.1187 63.4931 85.7487 63.1531 84.5287 62.4731C83.3087 61.7731 82.3488 60.8131 81.6488 59.5931C80.9488 58.3731 80.5987 56.9931 80.5987 55.4531C80.5987 53.9131 80.9488 52.5331 81.6488 51.3131C82.3488 50.0931 83.3087 49.1431 84.5287 48.4631C85.7487 47.7831 87.1187 47.4431 88.6387 47.4431C90.1587 47.4431 91.5287 47.7831 92.7487 48.4631C93.9687 49.1431 94.9187 50.0931 95.5987 51.3131C96.2987 52.5331 96.6488 53.9131 96.6488 55.4531C96.6488 56.9931 96.2987 58.3731 95.5987 59.5931C94.9187 60.8131 93.9687 61.7731 92.7487 62.4731C91.5287 63.1531 90.1587 63.4931 88.6387 63.4931ZM88.6387 61.6031C89.7587 61.6031 90.7587 61.3531 91.6387 60.8531C92.5387 60.3331 93.2388 59.6031 93.7388 58.6631C94.2388 57.7231 94.4887 56.6531 94.4887 55.4531C94.4887 54.2531 94.2388 53.1831 93.7388 52.2431C93.2388 51.3031 92.5387 50.5831 91.6387 50.0831C90.7587 49.5631 89.7587 49.3031 88.6387 49.3031C87.5187 49.3031 86.5087 49.5631 85.6087 50.0831C84.7287 50.5831 84.0288 51.3031 83.5088 52.2431C83.0088 53.1831 82.7588 54.2531 82.7588 55.4531C82.7588 56.6531 83.0088 57.7231 83.5088 58.6631C84.0288 59.6031 84.7287 60.3331 85.6087 60.8531C86.5087 61.3531 87.5187 61.6031 88.6387 61.6031Z" fill="#F4ECFE"/>
<path d="M163.834 5.78679C163.692 5.89992 163.651 5.8708 163.582 5.66727C163.527 5.44341 163.451 5.42005 163.143 5.50678C162.94 5.57623 162.745 5.59047 162.684 5.54679C162.46 5.38662 161.078 6.45698 159.571 7.96017C158.802 8.73209 157.655 10.4625 157.436 11.1974C157.316 11.6652 157.429 11.8077 158.088 12.0034C158.879 12.2313 159.425 11.8543 160.346 10.4839C161.077 9.3777 161.33 9.06711 162.986 7.48567C163.961 6.55421 164.296 6.08681 164.151 5.85991C164.064 5.76678 163.933 5.73462 163.834 5.78679ZM157.909 11.5672C157.932 11.7068 157.955 11.8463 157.94 11.8666C157.911 11.9073 157.859 11.8084 157.836 11.6688C157.778 11.5351 157.79 11.3898 157.804 11.3695C157.834 11.3288 157.865 11.4131 157.909 11.5672Z" fill="#F4ECFE"/>
<g clip-path="url(#clip0)">
<path d="M10.369 66.4143C10.7182 68.1059 11.0406 69.7997 11.3898 71.4914C11.9167 74.0684 12.1806 76.7191 11.1142 79.2107C10.6814 80.1972 9.26514 80.3094 8.35449 80.3552C7.78915 80.3471 7.24429 80.258 6.69109 80.0638C5.33586 79.5892 5.39304 77.257 6.68894 78.0007C7.6475 78.5596 8.35924 77.0219 7.42949 76.4872C5.99164 75.6489 4.35812 76.4132 3.83344 77.936C3.26364 79.5683 4.58073 80.9187 5.92382 81.5794C7.37797 82.2842 9.5241 82.2199 10.9459 81.4988C13.1403 80.3462 13.4522 77.8351 13.5444 75.6058C13.6706 72.4481 12.5798 69.2016 11.931 66.1053C13.0902 65.8018 14.1587 65.3733 15.0093 64.9091C18.9725 62.6641 20.6745 54.6202 15.1575 53.2058C11.5054 52.252 8.18473 57.5145 11.9284 59.6249C12.998 60.2279 13.9809 60.4145 15.2347 60.2887C16.3283 60.1755 16.1949 58.4932 15.1014 58.6063C12.6204 58.8558 11.018 55.9409 13.7079 54.9342C16.3711 53.9296 17.0677 57.6305 16.9092 59.3624C16.6716 62.1322 14.1694 63.8118 11.6211 64.5692C10.8852 60.7127 9.98901 56.8689 8.96128 53.062C9.28992 52.7979 9.59393 52.5621 9.86913 52.3023C13.8024 49.0015 20.0784 36.9184 11.3935 35.5699C8.39778 35.0931 5.78356 37.7338 5.13467 40.4039C4.16238 44.4223 5.72908 48.5833 7.00773 52.5026C3.84484 55.3455 0.899901 58.224 2.31079 62.7941C3.36072 66.2025 6.99189 66.8935 10.369 66.4143ZM7.34568 39.4616C8.56615 36.8785 13.2051 36.0347 13.8872 39.5516C14.3047 41.7669 13.4112 44.4035 12.519 46.3787C11.6945 48.1899 10.1481 49.7144 8.4927 51.221C7.24703 47.3785 5.52832 43.3353 7.34568 39.4616ZM7.54606 54.2057C7.65539 54.5674 7.76264 54.9028 7.84316 55.2402C8.68729 58.4269 9.37315 61.6525 10.059 64.8782C7.10532 65.271 3.99158 63.9835 3.60591 60.8134C3.28862 58.167 5.42844 55.9871 7.54606 54.2057Z" fill="#F4ECFE"/>
</g>
<defs>
<clipPath id="clip0">
<rect width="16.9684" height="46.2774" fill="white" transform="translate(0 36.3405) rotate(-4.53108)"/>
</clipPath>
</defs>
</svg>
