<svg width="59" height="51" viewBox="0 0 59 51" fill="none" xmlns="http://www.w3.org/2000/svg">
<path d="M36.5098 43.1447C36.142 43.2293 35.7171 43.3464 35.2351 43.4962C34.7681 43.6059 34.2741 43.6683 33.753 43.6834C33.3581 43.7206 32.9834 43.7933 32.6291 43.9015C32.2612 43.9861 31.8641 44.1187 31.4377 44.2995C31.1539 44.3989 30.8491 44.4945 30.5233 44.5864C30.226 44.6621 29.922 44.7259 29.6111 44.7778C29.1862 44.895 28.8055 44.924 28.4691 44.8649C28.1762 44.7496 27.8683 44.6742 27.5454 44.6388C27.2089 44.5798 26.88 44.5007 26.5586 44.4017C26.2792 44.31 25.9916 44.2702 25.6957 44.2822C25.4149 44.2542 25.1123 44.2543 24.7879 44.2826C24.5912 44.2693 24.4087 44.248 24.2405 44.2184C24.1008 44.1726 24.0024 44.166 23.9454 44.1986C23.2213 43.8584 22.5896 43.4812 22.0502 43.0669C21.5108 42.6526 20.9774 42.282 20.4501 41.9551C20.2007 41.7834 20.0204 41.6666 19.9092 41.6044C19.5274 41.0687 19.1021 40.5892 18.6333 40.166C18.713 40.3718 19.5619 38.6459 19.6146 38.8043C19.8775 38.9996 20.1051 39.1994 20.2975 39.4036L20.9195 39.8963C21.139 40.1479 21.3374 40.3958 21.5147 40.6399C21.7071 40.8442 21.8987 41.0802 22.0896 41.3481C22.3134 41.4087 22.5087 41.4856 22.6754 41.5788C22.8572 41.632 23.0307 41.737 23.196 41.8939C23.6542 42.1661 24.1214 42.3546 24.5975 42.4595C25.1022 42.5481 25.6286 42.6085 26.1767 42.6409C26.6693 42.6421 27.1544 42.6634 27.632 42.7046C28.096 42.7222 28.6103 42.6953 29.175 42.624C29.4573 42.5883 29.7741 42.58 30.1255 42.5991C30.492 42.5782 30.9004 42.5647 31.3509 42.5586C32.1843 42.4279 32.9907 42.2499 33.7699 42.0245C34.5642 41.7592 35.3321 41.4146 36.0737 40.9909L36.5015 40.7464C37.1667 40.5862 37.7492 40.3476 38.2491 40.0306C38.7775 39.6972 39.3404 39.3912 39.938 39.1127C40.1947 38.966 40.4236 38.8038 40.6247 38.626C40.8123 38.4246 41.0209 38.2269 41.2505 38.0328C41.8254 37.5159 42.3867 36.9753 42.9344 36.411C43.4687 35.823 43.9751 35.2195 44.4538 34.6004C44.8739 34.0776 45.2242 33.5319 45.5047 32.9633C45.8136 32.3784 46.0032 31.7832 46.0734 31.1777C46.1407 30.6994 46.1726 30.2257 46.1693 29.7564C46.1945 29.2708 46.213 28.7734 46.2247 28.2641C46.2547 28.1841 46.2861 28.0405 46.319 27.8332C46.1866 27.4691 46.0685 27.0968 45.9646 26.7164C45.8472 26.3123 45.7155 25.9163 45.5696 25.5285C45.4493 25.2517 45.3147 24.9831 45.1659 24.7226C45.0455 24.4458 44.859 23.8378 46.076 23.733C46.8302 24.1839 47.0381 24.0926 47.4006 24.8593C47.56 25.2708 47.6842 25.6867 47.7731 26.1071C47.8905 26.5112 48.0146 26.9272 48.1456 27.355C48.2644 27.6954 48.2917 28.0411 48.2273 28.392C48.1915 28.7266 48.233 29.0641 48.3519 29.4045C48.3175 29.6755 48.2689 29.9546 48.206 30.2418C48.1717 30.5127 48.123 30.7918 48.0602 31.079C47.798 32.077 47.445 33.0483 47.0011 33.993C46.5857 34.9215 45.9818 35.7848 45.1894 36.5832L44.5817 37.3074L43.9334 37.9605C43.0239 38.9514 42.0273 39.7564 40.9435 40.3758C39.9616 40.8425 39.0257 41.4559 38.1356 42.2157C37.9345 42.3935 37.6988 42.5439 37.4286 42.6669C37.1584 42.7899 36.8521 42.9491 36.5098 43.1447Z" fill="#262425"/>
<path d="M11.3769 27.0523C11.562 27.0301 11.9081 27.0417 12.5183 27.1534C13.1015 26.4621 13.1271 26.5772 13.2649 25.484C13.3904 24.2286 13.6353 23.0066 13.9994 21.8178C14.3793 20.5862 14.8113 19.3756 15.2953 18.1859C15.6942 17.6198 16.0853 17.075 16.4685 16.5517C16.882 16.0111 17.2804 15.4791 17.6636 14.9558C17.9852 14.5353 18.3661 14.1485 18.8065 13.7954C19.2323 13.4169 19.6576 13.0724 20.0823 12.7621C20.3097 12.5983 20.5142 12.4646 20.6957 12.3608L21.3311 11.9978C21.6628 11.8759 21.9939 11.7882 22.3245 11.7345C22.655 11.6809 22.9867 11.5591 23.3195 11.3689C23.6837 11.0932 24.0837 10.9153 24.5196 10.8353C24.9712 10.7126 25.4373 10.6153 25.918 10.5435C26.4436 10.48 26.977 10.395 27.5182 10.2887C28.0751 10.1395 28.6544 9.9945 29.2561 9.85358C29.6147 9.91923 30.0035 9.96759 30.4226 9.99867C30.8417 10.0297 31.2675 10.1077 31.7001 10.2326C32.313 10.322 32.8884 10.4159 33.4263 10.5144C33.9944 10.5956 34.5384 10.7751 35.0583 11.0529C35.1626 11.0948 35.2371 11.1198 35.2819 11.128C35.3267 11.1362 35.3788 11.1572 35.4382 11.1909C36.366 11.2695 36.822 11.5494 37.7174 12.0191C38.0456 12.5671 39.6531 10.9468 39.3125 10.7018C38.9875 10.4141 38.6093 10.1736 38.1779 9.98051C37.6714 9.79647 37.2798 9.46225 37.003 8.97787C36.7083 8.67281 36.2248 8.45874 35.5525 8.33564C35.0594 8.24537 34.5361 8.17238 33.9826 8.11669L32.3018 7.80894C31.6855 7.92437 31.0938 7.90735 30.5268 7.75789C29.9598 7.60842 29.3771 7.50174 28.7788 7.43784C28.7037 7.44692 28.6208 7.47739 28.53 7.52925C28.4695 7.56382 28.4096 7.56426 28.3502 7.53056C28.2 7.54872 28.0571 7.57963 27.9216 7.62329C27.786 7.66694 27.6661 7.66782 27.5619 7.62591C26.9489 7.53651 26.3421 7.52814 25.7415 7.60079C25.1409 7.67343 24.5627 7.75019 24.0069 7.83104C23.7649 7.96934 23.5604 8.1031 23.3934 8.23232C23.2265 8.36154 23.0377 8.45252 22.827 8.50525C21.953 8.80176 21.1669 9.2171 20.4688 9.75126C19.7562 10.2599 19.0508 10.7813 18.3527 11.3155C18.1409 11.4365 18.0042 11.5485 17.9426 11.6513C17.4663 12.3631 16.901 13.0242 16.2466 13.6349C15.5922 14.2455 15.0342 14.9195 14.5726 15.6567C14.2958 16.0854 14.0117 16.5014 13.7204 16.9046L12.8934 17.9858C12.6873 18.6785 12.4738 19.3585 12.2531 20.0257C12.048 20.6501 11.8357 21.2618 11.616 21.8607L11.5555 22.8084C11.5511 23.0815 11.5314 23.3632 11.4967 23.6536C11.4878 24.1998 11.4715 24.7333 11.448 25.254C11.4245 25.7747 11.4082 26.3082 11.3993 26.8544C11.4051 26.9409 11.3952 27.0053 11.3769 27.0523Z" fill="#E5F5EE"/>
<path fill-rule="evenodd" clip-rule="evenodd" d="M41.3429 12.113C41.3502 12.111 41.3575 12.1091 41.365 12.1072L41.3769 12.0686L41.478 12.0151C41.5117 11.9973 41.5147 11.9418 41.487 11.8486C41.4711 11.9001 41.4424 11.9477 41.4007 11.9913L41.3769 12.0686C41.3652 12.083 41.3539 12.0979 41.3429 12.113Z" fill="#262425"/>
<path fill-rule="evenodd" clip-rule="evenodd" d="M44.7853 13.811L44.8251 13.8044L44.8757 13.7777L44.7864 13.7925L44.7853 13.811Z" fill="#262425"/>
<path fill-rule="evenodd" clip-rule="evenodd" d="M44.8496 21.3509L44.8568 21.353L44.8377 21.3895L44.8204 21.3945C44.8296 21.3798 44.8393 21.3653 44.8496 21.3509Z" fill="#262425"/>
<path d="M44.1992 6.7591C44.3439 6.7473 44.4203 6.72851 44.4282 6.70274C44.4699 6.65915 44.4759 6.54813 44.4463 6.36969C44.2083 6.40919 44.126 6.539 44.1992 6.7591Z" fill="#262425"/>
<path d="M47.6596 6.39641C47.6338 6.38846 47.617 6.39737 47.609 6.42314L47.6329 6.34584C47.6586 6.35378 47.6755 6.34487 47.6834 6.3191L47.6596 6.39641Z" fill="#262425"/>
<path fill-rule="evenodd" clip-rule="evenodd" d="M29.5101 22.9673C28.6385 24.4615 29.7113 26.3389 31.4411 26.3466L56.7395 26.4598C58.4693 26.4676 59.5588 24.5998 58.7006 23.0979L46.1494 1.13227C45.2912 -0.369655 43.1289 -0.379327 42.2573 1.11486L29.5101 22.9673ZM41.3429 12.113C41.2005 12.1522 41.0859 12.2256 40.999 12.333C40.9157 12.4202 40.8284 12.5203 40.7372 12.6332L40.0169 13.5963C39.7848 13.8916 39.5487 14.1997 39.3086 14.5207C39.0765 14.816 38.9643 15.1341 38.972 15.4751C39.1068 15.4038 39.1782 15.3553 39.1862 15.3295L40.972 12.8326C41.0632 12.7197 41.1287 12.5988 41.1685 12.4699C41.21 12.3351 41.2682 12.2161 41.3429 12.113ZM44.4682 13.8637L44.7853 13.811C44.7783 13.9154 44.7598 14.0163 44.7297 14.1136C44.7059 14.1909 44.691 14.2851 44.685 14.3961C44.6175 14.4317 44.559 14.4842 44.5094 14.5536C44.4598 14.623 44.4013 14.6755 44.3339 14.7111L43.9947 14.9875C43.9135 14.7931 43.872 14.6533 43.87 14.5681C43.8939 14.4908 44.0001 14.2837 44.1886 13.9467L44.4682 13.8637ZM49.7202 13.8982C49.504 14.1419 49.371 14.2985 49.3214 14.3678C49.3055 14.4194 49.3204 14.5086 49.3659 14.6355C49.5939 14.5365 49.712 14.2907 49.7202 13.8982ZM46.8394 25.2236L46.9167 25.2475L46.765 25.3277C46.7729 25.3019 46.764 25.285 46.7382 25.2771L46.7621 25.1998L46.8126 25.1731C46.8384 25.181 46.8473 25.1979 46.8394 25.2236ZM50.6704 23.3997C50.9124 23.1639 51.082 22.9341 51.1793 22.7101C51.3103 22.4683 51.476 22.2513 51.6763 22.0591L51.4892 21.7051C51.4437 21.5782 51.3853 21.4474 51.314 21.3125C51.2465 21.3481 51.1831 21.3709 51.1236 21.3808C51.0899 21.3986 51.0522 21.4293 51.0106 21.4729C50.939 21.7048 50.8546 21.9328 50.7574 22.1567C50.6938 22.3629 50.6391 22.5859 50.5934 22.8257C50.5696 22.903 50.5715 22.9883 50.5992 23.0815C50.6348 23.1489 50.6586 23.255 50.6704 23.3997ZM44.9894 21.3093C44.974 21.3593 44.9298 21.3738 44.8568 21.353C44.9898 21.1003 45.1273 20.8746 45.2693 20.6761C45.4518 20.4502 45.6562 20.2451 45.8823 20.0609C45.9497 20.0252 46.0082 19.9727 46.0578 19.9034C46.1154 19.8083 46.169 19.726 46.2186 19.6567C46.3337 19.4664 46.4537 19.3059 46.5787 19.1751C46.7374 19.0265 46.9129 18.869 47.1053 18.7026L47.1111 18.9584C46.9028 19.1763 46.7163 19.4151 46.5516 19.6747C46.4206 19.9165 46.251 20.1464 46.0427 20.3643C45.876 20.5387 45.7005 20.6962 45.516 20.8368C45.3573 20.9854 45.1818 21.1429 44.9894 21.3093ZM44.8204 21.3945C44.7334 21.419 44.65 21.4322 44.57 21.434C44.5105 21.4439 44.4778 21.5043 44.4718 21.6153C44.5074 21.6828 44.5381 21.7204 44.5639 21.7284C44.6829 21.7086 44.7414 21.6561 44.7394 21.5709C44.7583 21.5096 44.7853 21.4508 44.8204 21.3945ZM42.5741 21.2418C42.5324 21.2854 42.4104 21.3607 42.2082 21.4676C42.008 21.293 41.9774 21.0719 42.1164 20.8044C42.2353 20.7846 42.3503 20.7778 42.4613 20.7838L42.8182 20.7245C42.7051 21 42.6237 21.1724 42.5741 21.2418ZM35.1425 21.3206C35.0948 21.4752 35.1483 21.5763 35.3029 21.624C35.3545 21.6399 35.4139 21.63 35.4814 21.5944C35.4635 21.5607 35.4586 21.5309 35.4665 21.5051L35.4785 21.4665C35.4072 21.3316 35.2952 21.283 35.1425 21.3206ZM38.4783 19.8519L38.5408 19.7865L38.5914 19.7598L38.5022 19.7746L38.4783 19.8519Z" fill="#262425"/>
<path fill-rule="evenodd" clip-rule="evenodd" d="M29.4899 27.4615C30.3615 25.9673 29.2887 24.0899 27.5589 24.0821L2.26053 23.969C0.530722 23.9612 -0.558785 25.8289 0.299415 27.3309L12.8506 49.2965C13.7088 50.7984 15.871 50.8081 16.7426 49.3139L29.4899 27.4615ZM10.185 28.1216L10.4974 28.0459C10.498 28.1505 10.4869 28.2525 10.4641 28.3517C10.446 28.4306 10.4381 28.5256 10.4402 28.6367C10.3756 28.6772 10.3211 28.7339 10.2767 28.8067C10.2323 28.8795 10.1778 28.9362 10.1131 28.9766L9.79515 29.2771C9.69995 29.0893 9.64826 28.9529 9.64008 28.868C9.65819 28.7892 9.7489 28.5748 9.91223 28.225L10.185 28.1216ZM11.17 31.5609C11.0309 31.6105 10.9219 31.692 10.8432 31.8056C10.7665 31.8986 10.6868 32.0048 10.6041 32.1242L9.95642 33.1375C9.74656 33.4489 9.53369 33.7736 9.3178 34.1113C9.10794 34.4228 9.01937 34.7483 9.05208 35.0878C9.18135 35.0069 9.24899 34.9532 9.25503 34.9269L10.8529 32.3058C10.9356 32.1865 10.9921 32.0611 11.0222 31.9297C11.0538 31.7922 11.1031 31.6693 11.17 31.5609ZM13.5787 32.6498C13.6231 32.5769 13.7442 32.4111 13.942 32.1522C13.9626 32.5442 13.8629 32.798 13.6427 32.9134C13.588 32.7902 13.5667 32.7023 13.5787 32.6498ZM11.6549 38.5248C11.8488 38.4033 11.9649 38.3193 12.0033 38.2728C12.0476 38.1999 12.1162 38.022 12.2088 37.739L11.8572 37.8242C11.7461 37.8264 11.6319 37.8417 11.5147 37.8701C11.3958 38.1471 11.4425 38.3653 11.6549 38.5248ZM14.0256 45.0023C13.8679 44.9661 13.8072 44.8692 13.8434 44.7115C13.9929 44.6628 14.1081 44.7031 14.1891 44.8324L14.1801 44.8718C14.174 44.8981 14.1812 44.9274 14.2014 44.9597C14.1368 45.0002 14.0782 45.0144 14.0256 45.0023ZM18.99 38.8599C19.0643 38.8753 19.1073 38.8575 19.119 38.8066C19.2987 38.6265 19.4622 38.4566 19.6096 38.2967C19.7832 38.1429 19.9468 37.973 20.1002 37.7869C20.2919 37.5542 20.4442 37.3125 20.5572 37.0618C20.7024 36.7908 20.8709 36.539 21.0626 36.3063L21.0381 36.0517C20.8584 36.2318 20.6949 36.4017 20.5475 36.5616C20.4325 36.7011 20.3245 36.87 20.2237 37.0682C20.1793 37.141 20.1319 37.227 20.0815 37.3261C20.0371 37.3989 19.9826 37.4555 19.9179 37.496C19.7059 37.6963 19.5172 37.9158 19.3517 38.1545C19.2247 38.363 19.1041 38.5981 18.99 38.8599ZM18.7099 38.9616C18.7895 38.954 18.8718 38.9347 18.9567 38.9039C18.9259 38.9627 18.9033 39.0233 18.8889 39.0858C18.8971 39.1706 18.8426 39.2273 18.7254 39.2557C18.6991 39.2497 18.6657 39.2143 18.6252 39.1497C18.6231 39.0385 18.6513 38.9759 18.7099 38.9616ZM24.0482 33.7128C24.2722 33.4599 24.4246 33.2182 24.5051 32.9877C24.6181 32.737 24.7674 32.5084 24.9531 32.302L24.7405 31.9627C24.6858 31.8395 24.6179 31.7133 24.537 31.584C24.4723 31.6245 24.4107 31.6518 24.3521 31.666C24.3198 31.6863 24.2845 31.7197 24.2461 31.7662C24.1918 32.0027 24.1243 32.2363 24.0438 32.4668C23.9955 32.677 23.9573 32.9034 23.9293 33.146C23.9112 33.2248 23.9194 33.3097 23.9538 33.4006C23.9943 33.4652 24.0258 33.5693 24.0482 33.7128ZM22.3478 32.3076L22.4267 32.3257L22.2812 32.4168C22.2873 32.3905 22.2772 32.3743 22.2509 32.3683L22.269 32.2895L22.3175 32.2591C22.3437 32.2651 22.3539 32.2813 22.3478 32.3076ZM14.8266 25.0191C14.8003 25.013 14.7842 25.0232 14.7781 25.0494L14.7962 24.9706C14.8225 24.9766 14.8387 24.9665 14.8447 24.9402L14.8266 25.0191ZM19.5869 28.5381L19.6444 28.4683L19.6929 28.438L19.605 28.4593L19.5869 28.5381ZM11.982 24.6722C12.1255 24.6498 12.2003 24.6255 12.2063 24.5992C12.2446 24.5527 12.2425 24.4415 12.1999 24.2657C11.9655 24.3226 11.8929 24.4581 11.982 24.6722ZM11.2976 31.4534L11.2007 31.5141L11.2188 31.4353C11.2571 31.3888 11.2823 31.3392 11.2944 31.2867C11.3288 31.3776 11.3299 31.4331 11.2976 31.4534Z" fill="#E5F5EE"/>
</svg>
