<svg width="31" height="28" viewBox="0 0 31 28" fill="none" xmlns="http://www.w3.org/2000/svg">
<path d="M4.99986 18.7116C5.00056 18.6054 4.99957 18.4532 4.97805 18.3709C4.90602 18.0458 5.06936 12.4552 5.18969 10.3323C5.22633 9.94784 5.24315 9.52722 5.23805 9.38894C5.23295 9.25067 5.22615 9.0663 5.23676 8.97822C5.32966 7.36402 5.25252 6.9007 4.85928 6.63364C4.73561 6.53665 4.58562 6.47756 4.53538 6.49326C4.48926 6.49496 4.45133 6.46866 4.45374 6.40857C4.44623 6.33039 4.40421 6.31809 4.27743 6.38737C4.11853 6.46245 4.10622 6.50444 4.11982 6.87318C4.11841 7.08554 4.1156 7.51026 4.10769 7.79671C4.08576 8.07905 4.06724 8.45358 4.06824 8.60586C4.05752 9.31702 4.00746 10.2143 3.97974 10.4645C3.84763 11.6417 3.72981 13.0814 3.64512 14.6676C3.62179 15.1623 3.59266 15.6249 3.58206 15.713C3.55023 15.9773 3.53909 17.0531 3.55228 17.7864C3.56178 18.1692 3.57057 18.6581 3.57327 18.8565C3.58816 19.6359 3.66178 20.6301 3.7072 20.7346C3.76084 20.8111 3.79296 20.8053 3.8695 20.7517C3.95426 20.6701 3.96827 20.6742 3.97747 20.7985C3.99828 20.987 4.11035 21.0198 4.17359 20.8559C4.20641 20.7439 4.23033 20.7661 4.24533 20.9225C4.29176 21.1792 4.56613 21.2291 4.70011 20.9796L4.80949 20.814L4.79817 21.0083C4.79677 21.2206 4.96317 21.2238 5.02472 21.0138C5.04523 20.9438 5.04054 20.4409 5.02014 19.8878C4.99564 19.3487 4.98515 18.8137 4.99986 18.7116Z" fill="#F4ECFE"/>
<path d="M26.0186 18.6371C26.0193 18.5279 26.0183 18.3712 25.9961 18.2866C25.922 17.9521 26.0901 12.2001 26.2139 10.0159C26.2516 9.62034 26.2689 9.18757 26.2636 9.0453C26.2584 8.90304 26.2514 8.71335 26.2623 8.62272C26.3579 6.96192 26.2785 6.48522 25.8739 6.21045C25.7467 6.11067 25.5924 6.04987 25.5407 6.06602C25.4932 6.06776 25.4542 6.04071 25.4567 5.97888C25.449 5.89844 25.4057 5.88579 25.2753 5.95707C25.1118 6.03432 25.0991 6.07753 25.1131 6.4569C25.1117 6.6754 25.1088 7.11238 25.1006 7.4071C25.0781 7.6976 25.059 8.08294 25.0601 8.23961C25.049 8.97131 24.9975 9.89445 24.969 10.1519C24.8331 11.3631 24.7119 12.8444 24.6247 14.4764C24.6007 14.9854 24.5707 15.4614 24.5598 15.552C24.5271 15.8239 24.5156 16.9307 24.5292 17.6853C24.539 18.0791 24.548 18.5821 24.5508 18.7862C24.5661 19.5881 24.6419 20.6111 24.6886 20.7186C24.7438 20.7972 24.7768 20.7913 24.8556 20.7361C24.9428 20.6522 24.9572 20.6564 24.9667 20.7843C24.9881 20.9782 25.1034 21.0119 25.1684 20.8433C25.2022 20.7281 25.2268 20.751 25.2423 20.9119C25.29 21.176 25.5723 21.2274 25.7102 20.9706L25.8227 20.8003L25.8111 21.0001C25.8096 21.2186 25.9808 21.2218 26.0441 21.0058C26.0653 20.9338 26.0604 20.4164 26.0394 19.8473C26.0142 19.2926 26.0034 18.7422 26.0186 18.6371Z" fill="#F4ECFE"/>
<path d="M8.32732 6.85292C8.47664 6.8521 8.69079 6.84804 8.80656 6.81576C9.26386 6.70678 17.1258 6.84493 20.1111 6.98107C20.6516 7.02702 21.2431 7.04392 21.4376 7.03422C21.6321 7.02452 21.8914 7.01159 22.0152 7.0253C24.2851 7.13083 24.9369 7.01215 25.3134 6.4432C25.4501 6.26404 25.5336 6.04776 25.5116 5.97594C25.5094 5.90977 25.5464 5.85489 25.6309 5.85731C25.7409 5.84519 25.7583 5.78467 25.6612 5.60391C25.556 5.37716 25.497 5.36022 24.9784 5.38609C24.6797 5.38773 24.0824 5.391 23.6796 5.38458C23.2826 5.35798 22.7559 5.33785 22.5418 5.3419C21.5416 5.33876 20.28 5.28237 19.9281 5.24689C18.2729 5.07756 16.2484 4.93328 14.0179 4.83905C13.3222 4.81409 12.6717 4.78025 12.5479 4.76654C12.1763 4.72541 10.6634 4.72796 9.632 4.75951C9.09372 4.77973 8.40613 4.80077 8.12715 4.80806C7.03094 4.84285 5.63254 4.96562 5.48549 5.03261C5.37779 5.1109 5.38587 5.15689 5.46104 5.26583C5.57557 5.38606 5.56977 5.40623 5.39497 5.42158C5.12987 5.45469 5.08347 5.61609 5.31377 5.70403C5.47116 5.74921 5.43989 5.78391 5.21994 5.80814C4.85874 5.87918 4.78789 6.2738 5.13851 6.46179L5.37109 6.61591L5.09791 6.60302C4.79926 6.60466 4.79449 6.84352 5.08961 6.92823C5.18798 6.95647 5.89525 6.94108 6.67315 6.90228C7.43137 6.85783 8.18379 6.83356 8.32732 6.85292Z" fill="#F4ECFE"/>
<path d="M7.32646 21.8529C7.47579 21.8521 7.68993 21.848 7.80571 21.8158C8.26301 21.7068 16.125 21.8449 19.1102 21.9811C19.6508 22.027 20.2423 22.0439 20.4367 22.0342C20.6312 22.0245 20.8905 22.0116 21.0144 22.0253C23.2842 22.1308 23.936 22.0121 24.3126 21.4432C24.4493 21.264 24.5327 21.0478 24.5108 20.9759C24.5085 20.9098 24.5456 20.8549 24.6301 20.8573C24.7401 20.8452 24.7575 20.7847 24.6603 20.6039C24.5551 20.3772 24.4961 20.3602 23.9775 20.3861C23.6789 20.3877 23.0816 20.391 22.6788 20.3846C22.2817 20.358 21.7551 20.3378 21.5409 20.3419C20.5408 20.3388 19.2791 20.2824 18.9272 20.2469C17.272 20.0776 15.2476 19.9333 13.017 19.839C12.3214 19.8141 11.6708 19.7802 11.547 19.7665C11.1755 19.7254 9.66254 19.728 8.63114 19.7595C8.09287 19.7797 7.40527 19.8008 7.1263 19.8081C6.03008 19.8428 4.63169 19.9656 4.48464 20.0326C4.37694 20.1109 4.38501 20.1569 4.46019 20.2658C4.57471 20.3861 4.56891 20.4062 4.39411 20.4216C4.12901 20.4547 4.08261 20.6161 4.31291 20.704C4.47031 20.7492 4.43903 20.7839 4.21909 20.8081C3.85789 20.8792 3.78704 21.2738 4.13766 21.4618L4.37023 21.6159L4.09706 21.603C3.79841 21.6047 3.79363 21.8435 4.08875 21.9282C4.18713 21.9565 4.8944 21.9411 5.6723 21.9023C6.43052 21.8578 7.18294 21.8336 7.32646 21.8529Z" fill="#F4ECFE"/>
<path d="M6.35787 8.24014C6.42687 8.28985 6.52679 8.35981 6.59093 8.38379C6.83801 8.48702 10.41 11.1878 11.7382 12.2517C11.9715 12.4542 12.2381 12.6604 12.3308 12.7212C12.4236 12.7819 12.5473 12.863 12.5997 12.9108C13.6089 13.7208 13.9488 13.8848 14.3132 13.7492C14.4363 13.7126 14.5474 13.6411 14.5614 13.6007C14.5826 13.5694 14.6181 13.5566 14.6562 13.5861C14.7109 13.6174 14.7392 13.5954 14.7553 13.4796C14.783 13.34 14.7616 13.3124 14.5142 13.1503C14.3762 13.0509 14.1002 12.852 13.9169 12.714C13.7432 12.5686 13.5075 12.3826 13.4076 12.3127C12.9484 11.9757 12.3866 11.5266 12.2366 11.3922C11.5317 10.7591 10.6484 10.0136 9.65351 9.22206C9.34172 8.97723 9.0537 8.74345 9.0013 8.6956C8.84412 8.55204 8.14696 8.04573 7.66166 7.7143C7.40714 7.54305 7.08361 7.32209 6.95276 7.23187C6.43655 6.88017 5.75171 6.46762 5.66152 6.44912C5.58565 6.44903 5.57391 6.47291 5.57191 6.54826C5.58423 6.64201 5.57478 6.64935 5.48917 6.59778C5.35604 6.52409 5.28046 6.58281 5.35691 6.70054C5.41417 6.77413 5.38812 6.77961 5.27875 6.71698C5.08864 6.62852 4.92345 6.78637 5.02166 6.9905L5.07692 7.13945L4.95553 7.04188C4.81753 6.94246 4.73508 7.05079 4.84244 7.18877C4.87823 7.23477 5.20892 7.46492 5.57997 7.708C5.94387 7.94187 6.29832 8.18309 6.35787 8.24014Z" fill="#F4ECFE"/>
<path d="M22.8903 8.04638C22.8176 8.09059 22.7143 8.1554 22.6672 8.20513C22.476 8.39249 18.5975 10.6317 17.1003 11.4411C16.8229 11.5773 16.5292 11.7426 16.4371 11.8043C16.345 11.8661 16.2222 11.9485 16.1578 11.9782C15.0187 12.5926 14.7354 12.8418 14.7188 13.23C14.7047 13.3576 14.7275 13.4876 14.7593 13.5163C14.7799 13.5479 14.7779 13.5856 14.7359 13.6092C14.6858 13.6473 14.6951 13.682 14.7956 13.7417C14.9136 13.8216 14.9474 13.8125 15.193 13.6477C15.3383 13.5593 15.6289 13.3825 15.8274 13.2674C16.029 13.1639 16.2921 13.0192 16.3954 12.9544C16.8845 12.6625 17.517 12.3199 17.6992 12.234C18.557 11.831 19.5876 11.3075 20.7042 10.699C21.0511 10.5071 21.3786 10.3328 21.4431 10.3031C21.6366 10.2142 22.3743 9.76908 22.8686 9.45107C23.1254 9.28328 23.4548 9.07127 23.5889 8.98587C24.1138 8.64726 24.7604 8.17705 24.8124 8.1012C24.842 8.03139 24.8246 8.0113 24.7559 7.98018C24.6646 7.95509 24.6615 7.94354 24.7423 7.88476C24.862 7.79082 24.8372 7.69842 24.699 7.72306C24.6089 7.74719 24.6139 7.72107 24.7142 7.64471C24.8696 7.50406 24.7882 7.29064 24.5618 7.30173L24.403 7.29474L24.5402 7.22088C24.6855 7.13246 24.6176 7.01446 24.4486 7.05969C24.3923 7.07477 24.0516 7.28979 23.6833 7.53696C23.3262 7.78112 22.966 8.01372 22.8903 8.04638Z" fill="#F4ECFE"/>
</svg>
