<svg width="99" height="75" viewBox="0 0 99 75" fill="none" xmlns="http://www.w3.org/2000/svg">
<path d="M24.6278 16.5014C25.2222 16.9762 25.2376 17.0572 24.3808 16.9684C23.8636 16.8989 23.1649 17.1999 22.7403 17.6167C22.0378 18.3384 22.0532 18.4194 22.937 19.0911C23.8363 19.8438 23.8363 19.8438 22.6552 19.8167C21.7328 19.8244 21.505 19.9517 21.7597 20.4072C22.0453 21.0248 38.6032 25.9357 51.8573 29.3758C56.7012 30.5534 63.2395 32.2484 66.3388 33.0862C76.8332 35.7078 85.8493 38.9469 87.2426 40.5295C87.532 40.7263 86.4513 40.3441 84.9847 39.6994C79.7163 37.1747 71.6805 34.673 58.3917 31.4915C54.2425 30.4336 44.605 27.9008 37.0516 25.7272C24.2684 22.1134 21.474 21.5535 21.6746 22.6072C21.7364 22.9315 56.9364 33.1125 57.6659 32.9736C57.8281 32.9427 60.6379 33.5836 63.9958 34.4562C67.2727 35.3442 70.0015 36.0006 70.0825 35.9852C70.1636 35.9697 72.2285 36.6685 74.7295 37.4522C80.4572 39.3015 86.0344 41.6834 85.6098 42.1003C85.3473 42.4862 81.1053 44.4698 78.6851 45.4345C77.9865 45.7355 77.0447 46.0828 76.4927 46.2719C76.0373 46.5266 74.6091 46.9665 73.3431 47.3755C72.077 47.7846 70.9886 48.2438 70.8419 48.3557C70.7763 48.4522 69.4292 48.8767 67.92 49.332C66.3143 49.7217 64.4152 50.3352 63.6201 50.5706C62.7439 50.8214 60.6017 51.4813 58.6872 52.0138C56.7728 52.5463 54.5495 53.2215 53.7544 53.4569C52.9592 53.6923 50.8016 54.2711 49.0492 54.7727C47.2004 55.2087 45.1392 55.8531 44.263 56.104C43.4679 56.3393 41.5689 56.9529 40.0442 57.3271C35.9721 58.4384 34.0229 59.2295 34.0846 59.5537C34.1309 59.7969 33.7063 60.2137 33.1852 60.5649C32.5985 61.0126 32.2202 61.6726 32.3282 62.24C32.4208 62.7263 32.3204 63.0814 31.9962 63.1431C31.753 63.1894 31.7646 63.6912 32.0347 64.2277C32.3203 64.8453 32.2508 65.3625 32.0385 65.5709C31.7297 65.7137 31.7258 66.1344 31.965 66.5088C32.4436 67.2577 33.3352 67.0879 39.4376 65.1701C40.1517 64.9502 42.9424 64.1669 45.6828 63.5611C48.4079 62.8743 52.2368 61.8093 54.0548 61.2112C55.9693 60.6787 58.7445 59.8143 60.3502 59.4246C68.6566 57.1712 81.7454 52.2434 86.138 49.7272C90.2372 47.4348 93.6071 43.5174 94.0859 40.7384C94.4335 38.1524 94.3409 37.6661 92.7199 36.2109C89.1422 32.8603 78.0303 28.7604 64.2397 25.5904C58.9751 24.4089 46.5277 21.2352 38.102 18.8916C25.7858 15.5249 22.8293 14.9959 24.6278 16.5014ZM88.4125 34.7631C90.8595 36.1451 90.9714 36.2918 89.9872 35.9752C89.4546 35.8246 88.5051 35.2494 88.0073 34.8403C86.915 33.9563 86.915 33.9563 88.4125 34.7631ZM85.1895 36.8046C86.2856 37.2679 87.6056 38.0245 88.2 38.4993C88.7789 38.8931 87.5206 38.4607 85.313 37.4531C83.1053 36.4455 80.72 35.3878 80.0098 35.187C79.2997 34.9862 78.6551 34.689 78.6397 34.6079C78.5779 34.2837 82.3372 35.4998 85.1895 36.8046ZM80.2881 31.3543C80.8207 31.5049 81.2877 31.7519 81.3186 31.914C81.334 31.9951 80.9133 31.9912 80.3806 31.8406C79.8326 31.609 79.381 31.443 79.3501 31.2809C79.3347 31.1998 79.7554 31.2037 80.2881 31.3543Z" fill="#FE3D95" fill-opacity="0.5"/>
<path d="M26.0507 16.1529C25.8679 16.1 25.4644 15.785 25.1467 15.3463C24.8614 14.9664 24.1191 14.4542 23.4202 14.3013C22.2644 14.0161 22.2053 14.0485 21.9055 14.9028C21.7127 15.3918 21.541 15.6392 21.4117 15.4037C21.3148 15.227 21.3359 14.9855 21.5132 14.8882C21.6904 14.7909 21.7439 14.6083 21.6469 14.4316C21.3883 13.9605 20.2983 14.6354 20.2024 15.301C20.1545 15.6339 20.2581 16.8031 20.48 17.9076C20.9292 20.2666 21.3383 24.7935 21.7228 31.0963C22.4218 43.4341 22.6514 46.3735 23.8653 57.9688C24.8239 67.5585 25.2241 69.408 26.1102 68.9217C26.3465 68.792 26.6797 68.839 26.8414 69.1335C26.9707 69.3691 27.3362 69.475 27.5725 69.3453C27.8088 69.2156 28.2658 69.348 28.5188 69.6689C28.987 70.1017 29.2288 70.1222 29.814 69.6478C30.2542 69.3295 30.641 69.1939 30.7056 69.3117C31.1582 70.1362 32.0855 68.3244 31.633 67.4999C31.4658 67.0552 30.3946 57.6806 30.1861 54.4997C30.1315 53.84 29.7547 49.3721 29.3077 44.6361C28.8607 39.9002 28.2443 33.0348 27.9601 29.4357C27.4127 21.996 26.5667 16.2529 26.0507 16.1529ZM26.2138 66.0294C26.3008 66.748 26.1938 67.1132 26.0645 66.8777C25.8059 66.4065 25.6899 64.0945 25.9753 64.4743C26.0399 64.5921 26.1269 65.3107 26.2138 66.0294ZM25.8984 63.2137C25.9207 63.8146 25.7813 64.1209 25.6844 63.9443C25.5874 63.7676 25.5651 63.1667 25.5751 62.6248C25.5528 62.0239 25.6922 61.7176 25.7568 61.8354C25.8538 62.012 25.9084 62.6718 25.8984 63.2137ZM25.3644 57.7591C25.6643 60.9665 25.6922 61.7176 25.4336 61.2464C25.2396 60.893 24.6667 54.387 24.8495 54.4399C24.9409 54.4664 25.2385 55.989 25.3644 57.7591ZM24.8584 53.0556C24.8807 53.6565 24.7413 53.9628 24.6444 53.7862C24.5474 53.6095 24.5251 53.0086 24.5351 52.4667C24.5128 51.8658 24.6522 51.5595 24.7168 51.6773C24.8138 51.8539 24.8684 52.5137 24.8584 53.0556ZM24.651 50.7171C24.6031 51.0499 24.4905 51.265 24.3936 51.0883C24.2966 50.9116 24.2799 50.461 24.2955 50.0693C24.2843 49.7688 24.4292 49.6127 24.5262 49.7894C24.5908 49.9072 24.6399 50.4167 24.651 50.7171ZM24.3902 48.5612C24.5039 49.1885 24.3322 49.436 24.0737 48.9648C24.009 48.8471 23.9979 48.5466 24.1104 48.3316C24.223 48.1165 24.3467 48.2019 24.3902 48.5612ZM24.34 47.2093C24.2921 47.5422 24.2063 47.6659 24.1093 47.4892C24.0123 47.3125 23.9365 46.8943 23.9845 46.5615C24.0001 46.1697 24.0859 46.046 24.1829 46.2227C24.2798 46.3994 24.3556 46.8176 24.34 47.2093Z" fill="#FE3D95" fill-opacity="0.5"/>
</svg>
