<svg width="34" height="22" viewBox="0 0 34 22" fill="none" xmlns="http://www.w3.org/2000/svg">
<path d="M29.4285 8.5945C26.3479 5.95814 23.233 3.32178 20.1523 0.712597C19.7073 0.332092 18.7147 0.38645 18.4408 0.875671C17.3455 2.75102 16.524 4.65355 15.9078 6.66479C12.5534 4.27304 8.61695 2.6423 4.20133 1.82693C3.61943 1.71822 3.03753 1.96283 2.86638 2.42487C1.77103 5.19713 1.46297 7.99656 1.29182 10.9047C1.1549 13.5954 0.709918 16.5036 1.29182 19.1399C1.87372 21.8035 10.26 17.5907 13.8198 15.7697C14.0937 17.2918 14.2991 18.7866 14.436 20.3086C14.5044 21.0153 15.2917 21.3142 16.079 21.0696C19.7073 19.8466 23.1645 18.4061 26.519 16.7482C28.2647 15.8785 32.3723 14.3836 32.9884 12.6442C33.5361 11.1493 30.4212 9.43704 29.4285 8.5945ZM16.4898 18.9769C16.2844 17.3733 16.079 15.7969 15.7709 14.1934V14.1662C15.7709 14.0846 15.7367 14.0031 15.7367 13.9216C15.5656 13.079 14.3333 13.1606 13.8198 13.7041C11.903 14.601 9.98613 15.4708 8.03505 16.2861C6.80278 16.8297 5.53629 17.3189 4.30402 17.8353C2.86638 18.4061 3.3456 15.4164 3.3456 15.199C3.44828 11.3396 3.48251 7.45298 4.71478 3.70228C8.85656 4.62637 12.4507 6.2571 15.5656 8.70321C15.9421 9.00218 16.4213 9.00218 16.7978 8.83911C17.2086 8.83911 17.6193 8.64885 17.722 8.21399C18.2012 6.33864 18.8516 4.57201 19.7416 2.83256C23.4041 5.93096 27.0325 9.02936 30.695 12.1549C31.2427 12.6713 20.5631 17.2918 16.4898 18.9769Z" fill="#4007D7" fill-opacity="0.8"/>
<path d="M1.29666 6.99094C1.19397 8.10525 0.988593 9.19238 0.714757 10.2795C0.543609 11.0133 1.94702 11.3123 2.11817 10.5785C2.42623 9.38262 2.63161 8.18678 2.76853 6.96376C2.83699 6.25713 1.36512 6.25713 1.29666 6.99094Z" fill="#4007D7" fill-opacity="0.8"/>
<path d="M1.02287 12.5625C0.0986608 12.5625 0.0986608 13.7313 1.02287 13.7313C1.94707 13.7313 1.94707 12.5625 1.02287 12.5625Z" fill="#4007D7" fill-opacity="0.8"/>
</svg>
