<svg width="410" height="777" viewBox="0 0 410 777" fill="none" xmlns="http://www.w3.org/2000/svg">
<path d="M242.977 23.8858C241.083 25.7767 239.787 27.8413 238.777 30.0677C237.191 30.1585 235.761 30.2553 234.201 30.1962C234.554 25.3785 232.464 21.072 227 19.9592C223.826 19.2351 220.681 20.1729 217.799 22.3283C214.553 24.7719 214.178 31.5516 213.276 34.9898C211.522 41.5662 209.618 50.8544 219.188 50.915C225.612 51.0073 230.021 45.4373 231.465 39.755C233.025 39.8141 234.456 39.7173 236.042 39.6264C234.424 49.0764 233.743 58.562 232.438 68.0239C230.357 68.2471 228.121 68.4643 226.067 68.5375C226.324 67.0374 226.294 65.3756 226.108 63.7078C225.844 61.5842 224.046 60.1574 221.861 60.0746C219.364 59.9801 216.711 59.8796 214.215 59.785C212.186 59.7082 209.588 61.1195 208.786 63.0517C206.357 69.9045 198.742 84.1096 208.165 87.7879C212.278 89.4535 216.592 88.1071 220.357 85.3812C222.875 83.5139 224.118 80.8435 224.918 78.0052C226.842 77.7762 228.896 77.703 230.976 77.4799C229.485 85.274 227.111 93.6387 225.542 101.883C224.138 101.83 222.864 101.932 221.459 101.879C221.562 101.279 221.665 100.679 221.767 100.079C222.307 96.9291 219.545 94.7109 216.321 95.1926C213.903 95.554 211.223 94.6976 208.675 94.903C205.633 95.2407 203.584 98.0316 202.107 100.24C200.345 103.193 200.173 107.867 199.478 111.011C198.808 114.005 196.738 118.758 197.836 121.517C199.954 126.579 207.755 125.969 212.326 123.122C216.897 120.276 218.447 115.806 219.061 111.3C220.648 111.209 222.39 111.124 223.95 111.183C222.929 119.901 223.208 128.366 226.476 135.887C226.58 136.193 226.841 136.505 227.102 136.817C227.598 137.591 228.301 138.07 228.797 138.844C223.655 154.199 222.601 171.37 219.956 186.82C213.535 223.415 207.245 260.165 200.98 296.765C196.153 324.966 191.456 353.322 186.447 381.666C148.4 381.886 109.653 395.365 87.3366 429.394C60.3542 470.494 97.5729 507.232 82.6066 548.786C74.4904 571.427 55.2884 590.93 40.612 610.605C28.1676 628.25 19.2612 646.332 16.0023 666.288C10.2549 701.7 30.033 731.134 60.7265 745.431C99.8549 763.671 147.299 767.28 192.495 765.671C229.656 764.21 268.276 752.387 286.193 716.53C294.091 700.675 295.117 682.748 296.043 666.327C297.424 643.582 295.452 622.069 290.333 600.588C287.393 588.398 283.494 577.23 285.285 564.012C287.001 552.15 295.817 540.104 302.582 529.943C314.013 512.712 321.338 496.533 324.962 477.195C334.393 425.768 299.411 400.74 253.898 388.599C268.988 308.702 283.765 228.792 297.451 148.842C299.633 148.019 301.686 147.04 303.321 145.743C307.501 142.429 308.661 137.49 309.743 133.002C310.928 127.914 311.957 122.82 312.986 117.726C314.521 117.935 315.9 118.138 317.435 118.347C316.743 123.303 318.029 128.636 323.517 128.693C332.489 128.58 335.515 120.995 337.346 113.968C338.97 107.236 337.962 98.4412 329.328 98.4161C322.878 98.4738 319.352 103.473 317.673 108.694C316.763 108.508 315.826 108.473 314.916 108.287C315.816 103.943 316.561 99.5932 317.462 95.2491C318.465 90.305 319.494 85.2108 320.497 80.2667C322.657 80.4995 324.816 80.7323 326.975 80.965C326.469 87.5887 328.514 94.9129 336.854 91.1525C346.726 86.6952 346.568 73.8565 344.731 66.2382C344.154 64.1027 342.955 62.8495 340.484 62.6049C333.564 61.739 328.294 65.9175 326.433 71.2821C325.054 71.079 323.806 71.0317 322.427 70.8285C323.353 66.3343 324.254 61.9902 325.18 57.4961C326.03 53.452 327.501 48.5256 328.661 43.5873C330.221 43.6464 331.938 43.7115 333.473 43.9206C333.504 46.4883 333.874 48.9179 335.671 50.3447C338.147 52.4012 341.787 52.2371 344.904 50.5435C351.32 47.0121 351.689 37.5148 352.197 31.797C352.833 25.3292 346.711 20.7191 340.034 23.9386C335.254 26.1732 333.182 30.02 332.463 34.22C331.683 34.1904 330.903 34.1609 330.122 34.1313C330.349 30.9695 329.901 28.084 328.907 25.6308C323.627 13.3529 303.707 14.1081 291.742 13.353C276.265 12.0119 256.109 11.3995 242.977 23.8858ZM328.08 110.296C327.793 110.134 327.663 109.978 327.351 109.966C327.453 109.366 327.687 108.922 328.076 108.484C328.05 108.634 328.18 108.79 328.285 109.096C328.129 109.09 328.208 109.546 328.08 110.296ZM214.413 78.8152C214.438 78.6652 214.464 78.5152 214.334 78.3592C214.462 77.6092 214.746 76.8652 214.875 76.1151C215.11 76.577 215.345 77.0388 215.58 77.5007C215.347 77.9448 214.932 78.5329 214.413 78.8152ZM218.78 644.226C184.164 643.67 150.603 637.87 117.095 632.675C117.972 629.387 118.667 626.243 119.544 622.955C153.642 624.699 186.039 632.72 220.368 633.115C219.908 636.72 219.266 640.471 218.78 644.226ZM204.902 506.919C202.184 524.631 199.336 542.187 196.619 559.899C193.681 560.542 190.665 560.73 187.57 560.462C190.963 542.473 194.2 524.479 197.281 506.479C199.96 506.429 202.431 506.674 204.902 506.919ZM176.179 619.665C179.472 603.182 182.764 586.7 185.901 570.212C188.996 570.48 192.169 570.298 195.236 569.81C194.8 572.36 194.363 574.91 194.109 577.316C191.93 591.878 189.596 606.434 187.417 620.996C183.567 620.549 179.873 620.107 176.179 619.665ZM193.927 506.805C190.872 524.655 187.686 542.349 184.318 560.188C182.939 559.984 181.561 559.781 180.051 559.422C179.297 559.242 178.568 558.913 177.657 558.727C180.819 542.089 183.982 525.451 187.144 508.812C189.482 507.995 191.796 507.328 193.927 506.805ZM182.519 569.782C179.382 586.27 176.272 602.608 172.823 619.085C170.664 618.852 168.531 618.469 166.215 618.231C169.378 601.592 172.696 584.96 175.858 568.322C178.096 569.01 180.36 569.549 182.519 569.782ZM190.487 621.415C192.997 603.997 195.819 586.591 198.486 569.179C201.423 568.535 204.281 567.436 207.035 566.03C204.138 584.792 201.422 603.41 198.681 622.178C195.897 621.921 193.27 621.671 190.487 621.415ZM199.92 558.967C202.535 541.855 205.306 524.749 207.946 507.487C208.857 507.672 209.611 507.852 210.34 508.181C212.085 509.002 213.647 509.967 215.158 511.232C213.031 525.494 210.722 539.9 208.595 554.162C206.025 556.33 203.09 557.879 199.92 558.967ZM218.26 514.218C223.896 522.584 223.293 532.526 217.699 543.184C216.301 545.849 214.642 548.201 212.878 550.248C214.62 538.236 216.362 526.224 218.26 514.218ZM168.915 521.71C169.901 520.539 171.017 519.525 171.977 518.504C169.893 528.842 167.784 539.331 165.7 549.669C161.184 542.1 162.201 531.571 168.915 521.71ZM176.183 515.04C178.519 513.317 181.143 511.756 183.74 510.344C180.732 526.083 177.75 541.671 174.742 557.409C172.268 556.259 170.159 554.82 168.568 553.099C171.037 540.511 173.688 527.778 176.183 515.04ZM169.351 565.962C170.522 566.459 171.694 566.956 172.865 567.453C169.677 584.242 166.49 601.03 163.146 617.812C160.7 617.418 158.229 617.173 155.784 616.779C159.256 599.246 162.728 581.714 166.331 564.337C167.32 564.979 168.336 565.47 169.351 565.962ZM201.932 622.452C204.802 602.934 207.828 583.422 210.697 563.904C213.528 562.049 216.254 559.887 218.745 557.264C215.62 579.188 212.496 601.112 209.397 622.886C206.874 622.941 204.403 622.697 201.932 622.452ZM239.569 412.665C233.784 442.792 228.155 472.924 222.37 503.051C222.24 502.895 222.24 502.895 222.109 502.739C221.849 502.427 221.406 502.26 221.12 502.098C220.859 501.786 220.729 501.63 220.312 501.312C228.028 450.726 235.926 399.996 243.799 349.416C251.083 303.192 258.367 256.968 265.833 210.6C269.04 190.944 271.91 171.426 274.805 151.758C276.522 151.823 278.42 151.744 280.162 151.659C264.984 238.498 252.121 325.576 239.569 412.665ZM267.246 179.402C259.917 228.644 251.495 277.844 243.854 327.074C234.774 384.704 225.851 442.34 217.11 499.832C214.741 498.988 212.347 498.293 209.927 497.749C209.771 497.743 209.771 497.743 209.615 497.737C218.874 439.057 228.445 380.388 237.886 321.564C247.123 264.846 255.736 208.104 265.156 151.242C267.028 151.313 269.031 151.54 271.242 151.472C269.936 160.934 268.656 170.246 267.246 179.402ZM247.565 241.16C233.58 326.534 219.932 411.77 206.415 497.163C204.1 496.924 201.603 496.829 199.08 496.885C210.174 432.99 220.488 369.066 232.206 305.195C241.637 253.768 251.069 202.341 259.719 150.885C259.875 150.891 259.875 150.891 260.031 150.897C260.812 150.926 261.592 150.956 262.347 151.135C257.367 181.142 252.388 211.148 247.565 241.16ZM253.977 165.161C243.81 224.561 232.419 283.765 221.939 343.153C212.846 394.442 204.533 445.76 195.596 497.055C193.516 497.278 191.41 497.651 189.279 498.174C200.205 440.765 210.95 383.5 221.564 326.079C230.61 276.902 239.343 227.714 248.701 178.549C250.475 169.105 252.43 159.516 254.36 150.078C255.14 150.108 255.895 150.287 256.675 150.317C255.646 155.411 254.799 160.361 253.977 165.161ZM240.155 206.457C231.778 252.64 223.246 298.817 214.714 344.993C205.127 396.414 195.539 447.835 185.796 499.25C183.301 500.061 180.937 501.029 178.677 502.302C196.99 409.996 214.861 317.522 231.926 225.168C236.603 199.68 241.28 174.191 245.645 148.691C247.284 149.206 249.106 149.577 250.953 149.798C247.405 168.686 243.702 187.569 240.155 206.457ZM210.074 305.112C216.624 267.767 222.887 230.261 229.436 192.917C231.85 178.816 233.783 159.263 237.394 145.51C238.982 146.325 240.752 146.996 242.678 147.673C222.629 266.636 198.497 385.595 174.859 504.422C174.158 504.848 173.612 505.28 172.911 505.707C187.926 439.092 198.493 371.856 210.074 305.112ZM303.336 423.686C319.965 440.319 318.196 463.502 313.357 486.267C309.083 505.731 296.427 521.859 285.776 539.12C274.685 557.118 273.16 573.366 277.675 591.956C286.808 629.441 294.135 673.803 277.136 713.469C256.179 762.497 185.301 758.151 144.672 755.103C102.794 752.007 51.2526 742.053 31.4842 705.222C8.63415 662.536 47.0301 619.906 74.1529 583.492C85.3548 568.517 93.7971 552.23 97.2437 534.847C101.05 515.365 92.6599 496.477 88.7976 478.667C76.9757 424.775 136.121 392.14 185.351 391.74C177.954 434.034 170.115 476.161 160.273 518.061C160.066 518.355 159.677 518.793 159.469 519.087C148.579 534.074 151.09 552.437 163.543 562.269C159.994 580.252 156.419 598.384 152.714 616.36C140.877 614.855 129.015 613.5 116.843 613.039C114.034 612.933 111.62 615.106 111.028 617.65C109.481 623.932 107.96 630.065 106.258 636.341C105.614 639.185 107.984 640.936 110.43 641.33C147.32 646.955 184.161 653.785 222.313 653.872C224.991 653.822 227.666 651.961 228.128 649.261C229.076 642.805 230.05 636.199 230.998 629.743C231.511 626.743 229.271 625.148 226.956 624.91C226.33 623.98 225.158 623.483 223.598 623.424C219.983 623.438 216.238 623.296 212.648 623.16C215.899 599.58 219.281 576.156 222.687 552.582C231.867 540.248 234.93 526.022 230.197 514.218C237.601 475.547 245.032 436.726 252.436 398.055C271.485 403.306 289.653 410.033 303.336 423.686ZM256.405 322.568C261.25 290.594 266.251 258.626 271.251 226.658C275.227 201.596 279.203 176.534 283.517 151.333C284.791 151.231 286.065 151.128 287.339 151.025C277.4 208.17 267.15 265.303 256.405 322.568ZM302.427 23.4201C315.72 24.6784 320.751 30.153 318.025 44.2414C312.057 73.6061 306.062 103.121 299.937 132.48C298.805 138.174 292.283 140.493 285.081 141.277C286.236 134.527 287.392 127.777 288.677 121.183C290.289 120.942 291.796 120.395 293.225 119.393C299.093 115.388 296.632 107.746 291.012 106.627C290.204 105.842 289.189 105.35 287.94 105.303C285.287 105.203 282.561 107.364 282.125 109.914C281.868 111.414 281.637 112.764 281.38 114.264C280.918 116.964 281.442 118.494 283.344 120.226C283.891 120.7 284.49 120.874 285.088 121.047C283.907 127.947 282.726 134.847 281.389 141.741C279.491 141.821 277.592 141.9 275.694 141.979C277.102 131.917 281.467 94.4897 290.306 81.3878C291.845 83.4087 294.707 84.121 297.281 83.7656C300.817 83.2956 302.838 79.7488 303.456 77.0547C304.256 74.2165 303.807 71.331 302.995 68.7337C302.314 66.2923 298.802 65.7064 296.412 66.8236C295.373 67.3882 294.464 68.1086 293.998 68.9968C292.491 69.5436 291.062 70.5463 290.337 72.0287C289.587 73.6609 289.174 75.155 289.048 76.8109C281.729 83.7805 279.426 100.904 278.192 107.198C275.747 118.731 273.9 130.437 272.079 141.993C269.738 141.904 267.709 141.827 266.149 141.768C271.051 112.212 276.291 82.5176 281.817 52.9851C282.151 51.0351 282.485 49.0851 282.975 47.141C283.747 43.5469 287.508 39.0091 292.92 40.4219C294.872 40.9488 296.348 37.8342 294.37 37.4574C281.568 34.255 279.464 47.4609 278.104 55.411C275.611 69.0553 273.275 82.7054 270.964 96.2055C268.37 111.356 265.933 126.512 263.34 141.662C262.404 141.626 261.623 141.597 260.687 141.561C264.924 116.811 269.03 91.905 272.486 67.1252C273.46 60.5192 274.433 53.9132 274.913 47.4395C275.314 40.5099 269.064 36.6498 262.431 35.9457C261.832 35.772 261.234 35.5984 260.635 35.4248C259.88 35.2452 259.1 35.2156 258.294 35.3361C255.718 34.7857 253.433 36.2088 252.086 38.5733C250.972 40.4938 250.3 42.582 250.253 44.6939C250.128 47.2557 251.46 49.5707 254.425 49.683C256.141 49.748 257.702 49.8071 259.419 49.8721C260.979 49.9312 263.162 49.1081 264.199 47.6376C265.054 46.3113 265.909 44.9849 266.739 43.8085C267.413 42.6262 267.774 41.4322 267.823 40.2263C272.562 42.8214 271.927 49.2891 271.16 55.601C270.062 64.7688 268.626 74.0748 267.216 83.2308C264.216 102.593 261.034 122.099 257.722 141.449C257.098 141.425 256.343 141.246 255.719 141.222C257.672 130.728 259.626 120.234 261.111 109.722C262.162 102.666 267.236 80.363 259.368 74.026C258.167 71.8669 255.591 71.3165 252.679 71.81C252.106 71.4864 251.508 71.3128 250.884 71.2891C245.993 70.5 242.623 75.5054 241.929 79.5555C240.954 85.2555 246.212 87.5683 251.334 87.0074C254.688 86.6816 257.31 84.2144 258.734 81.3998C262.511 96.0363 253.803 133.148 252.517 139.742C252.466 140.042 252.389 140.492 252.337 140.792C250.516 140.421 248.72 139.9 246.925 139.379C248.054 132.779 249.158 126.329 250.132 119.723C251.977 119.038 253.769 117.747 254.857 115.977C256.127 114.062 256.773 112.124 256.483 110.15C256.139 107.571 253.822 106.426 251.868 104.994C250.331 103.879 248.095 104.096 246.355 105.087C243.418 105.73 240.563 108.642 240.05 111.642C239.277 115.236 241.002 118.925 244.568 120.116C245.322 120.296 246.077 120.475 246.857 120.505C245.83 126.505 244.829 132.355 243.802 138.355C240.599 136.875 237.812 134.807 235.621 132.006C230.157 118.967 236.492 102.147 239.217 88.0583C242.071 73.2199 244.276 58.508 245.725 43.6165C247.811 22.2572 267.343 22.846 283.831 22.8667C290.358 22.359 296.393 22.8895 302.427 23.4201Z" fill="#ADA6B9"/>
<path d="M288.568 43.7626C287.805 48.9669 292.696 51.7522 297.888 51.0096C300.051 50.7771 302.134 49.1572 303.731 47.5204C305.761 45.2832 305.819 42.2083 305.091 39.8753C304.687 38.4766 303.417 37.3556 301.877 36.8405C301.175 36.2007 300.121 35.7025 298.823 35.6574C293.849 35.1769 289.059 39.1643 288.568 43.7626Z" fill="#ADA6B9"/>
<path d="M104.655 462.948C101.747 447.69 110.305 431.338 126 423.278C130.022 421.153 127.676 415.461 123.653 417.586C105.33 427.065 94.5125 446.365 97.8702 464.517C98.6366 468.333 105.395 466.914 104.655 462.948Z" fill="#ADA6B9"/>
<path d="M152.022 415.198C153.138 408.926 142.752 408.565 141.636 414.837C140.52 421.109 150.907 421.47 152.022 415.198Z" fill="#ADA6B9"/>
</svg>
