<svg width="23" height="17" viewBox="0 0 23 17" fill="none" xmlns="http://www.w3.org/2000/svg">
<path fill-rule="evenodd" clip-rule="evenodd" d="M0 4.62378C0.256948 6.82736 0.0611971 6.51089 0.917682 7.78442C2.60618 9.4948 1.75887 8.83797 2.49301 9.68316L3.34952 10.5862C4.95543 12.0565 4.95542 11.2731 6.25545 13.0175C9.65389 14.8297 10.9204 15.6108 13.9638 16.4444C16.7016 16.608 18.7969 17.4401 21.1217 16.1434C22.5747 15.7188 22.7887 14.9277 22.9419 13.8047C22.9877 13.4805 23.0182 13.2721 22.9877 13.0868C22.8653 12.5311 21.4001 12.1622 20.77 11.9871C19.0508 12.1622 17.4663 10.5051 16.7627 11.0608L14.958 12.7859C14.6521 13.0637 14.331 13.1795 13.7956 13.0059C11.6392 12.3344 9.65389 11.0608 7.87669 9.92625C7.43315 9.30405 7.11196 8.89605 6.439 8.46748C5.79662 7.73811 6.13004 6.82736 6.439 6.88138C6.86724 6.5572 7.73904 5.78152 7.73904 5.23738C7.73904 4.98268 7.70775 4.80901 7.5854 4.62378C7.46303 4.42696 7.23431 4.23014 7.11196 4.02174L6.08722 2.16936C5.35309 0.791643 6.13004 1.49247 4.17542 1.00002C2.78361 0.918987 2.29419 1.01162 1.22358 2.09988C0.917682 2.87754 0.256948 3.27077 0 4.62378Z" fill="#F4ECFE"/>
</svg>
